<?xml version="1.0" encoding="UTF-8"?>
<svg id="outline" xmlns="http://www.w3.org/2000/svg" version="1.1" viewBox="0 0 543.43 78.6">
  <!-- Generator: Adobe Illustrator 29.3.1, SVG Export Plug-In . SVG Version: 2.1.0 Build 151)  -->
  <defs>
    <style>
      .st0 {
        fill: #8a8c8e;
      }

      .st1 {
        fill: #0072b9;
      }
    </style>
  </defs>
  <g>
    <path class="st1" d="M41.45,27.94h-13.02v-10.54h38.07v10.54h-13.02v32.86h-12.03V27.94Z"/>
    <path class="st1" d="M70.22,17.4h34.9v10.23h-23v6.57h20.83v9.49h-20.83v6.88h23.31v10.23h-35.21V17.4Z"/>
    <path class="st1" d="M107.73,39.22v-.12c0-12.65,9.73-22.57,22.88-22.57,8.87,0,14.57,3.72,18.41,9.05l-9.05,7.01c-2.48-3.1-5.33-5.08-9.49-5.08-6.08,0-10.35,5.15-10.35,11.47v.12c0,6.51,4.28,11.59,10.35,11.59,4.53,0,7.19-2.11,9.8-5.27l9.05,6.45c-4.09,5.64-9.61,9.8-19.22,9.8-12.4,0-22.38-9.49-22.38-22.44Z"/>
    <path class="st0" d="M150.13,17.4h12.71l7.56,25.11,8.37-25.23h10.35l8.37,25.23,7.56-25.11h12.46l-14.51,43.71h-10.48l-8.74-24.98-8.68,24.98h-10.48l-14.51-43.71Z"/>
    <path class="st0" d="M220.5,17.4h12.09v43.4h-12.09V17.4Z"/>
    <path class="st0" d="M235.2,54.35l6.7-8c4.28,3.41,9.05,5.21,14.07,5.21,3.22,0,4.96-1.12,4.96-2.98v-.12c0-1.8-1.43-2.79-7.32-4.15-9.24-2.11-16.37-4.71-16.37-13.64v-.12c0-8.06,6.39-13.89,16.8-13.89,7.38,0,13.14,1.98,17.85,5.77l-6.01,8.49c-3.97-2.79-8.31-4.28-12.15-4.28-2.91,0-4.34,1.24-4.34,2.79v.12c0,1.98,1.49,2.85,7.5,4.22,9.98,2.17,16.18,5.39,16.18,13.52v.12c0,8.87-7.01,14.14-17.55,14.14-7.69,0-15-2.42-20.33-7.19Z"/>
    <path class="st0" d="M276.86,17.4h34.9v10.23h-23v6.57h20.83v9.49h-20.83v6.88h23.31v10.23h-35.21V17.4Z"/>
  </g>
  <g>
    <rect class="st0" x="362.33" y="17.44" width="1.84" height="15.89"/>
    <polygon class="st0" points="380.91 29.98 370.96 17.44 369.37 17.44 369.37 33.32 371.17 33.32 371.17 20.5 381.33 33.32 382.7 33.32 382.7 17.44 380.91 17.44 380.91 29.98"/>
    <polygon class="st0" points="389.56 20.5 399.72 33.32 401.1 33.32 401.1 17.44 399.3 17.44 399.3 29.98 389.36 17.44 387.77 17.44 387.77 33.32 389.56 33.32 389.56 20.5"/>
    <path class="st0" d="M413.45,33.58c5.01,0,8.01-4.17,8.01-8.25,0-4.65-3.42-8.16-7.96-8.16-5.01,0-8.01,4.17-8.01,8.2v.04c0,4.65,3.42,8.16,7.96,8.16ZM407.37,25.33c0-3.67,2.62-6.43,6.08-6.43s6.13,2.84,6.13,6.48v.04c0,3.67-2.62,6.43-6.08,6.43s-6.13-2.84-6.13-6.52Z"/>
    <polygon class="st0" points="431.95 33.43 438.94 17.44 436.97 17.44 431.24 30.85 425.53 17.44 423.5 17.44 430.49 33.43 431.95 33.43"/>
    <path class="st0" d="M453.15,33.32h2.02l-7.4-16h-1.54l-7.4,16h1.95l1.93-4.25h8.5l1.93,4.25ZM450.43,27.34h-6.9l3.46-7.57,3.44,7.57Z"/>
    <path class="st0" d="M469.68,29.59c-1.63,1.61-3.07,2.26-4.98,2.26-3.4,0-6.06-2.84-6.06-6.52s2.6-6.43,6.04-6.43c2.35,0,3.78,1.08,4.87,2.13l.25.25,1.3-1.34-.27-.25c-1.43-1.31-3.16-2.52-6.14-2.52-4.45,0-7.94,3.6-7.94,8.2v.04c0,4.65,3.4,8.16,7.9,8.16,3.08,0,4.9-1.39,6.28-2.75l.26-.25-1.27-1.23-.25.24Z"/>
    <rect class="st0" x="474.85" y="17.44" width="1.84" height="15.89"/>
    <polygon class="st0" points="492.71 14.13 490.67 13.16 488.03 16.52 489.87 16.52 492.71 14.13"/>
    <path class="st0" d="M489.24,17.17c-5.01,0-8.01,4.17-8.01,8.2v.04c0,4.65,3.42,8.16,7.96,8.16,5.01,0,8.01-4.17,8.01-8.25,0-4.65-3.42-8.16-7.96-8.16ZM495.32,25.38v.04c0,3.67-2.62,6.43-6.08,6.43s-6.13-2.84-6.13-6.52,2.62-6.43,6.08-6.43,6.13,2.84,6.13,6.48Z"/>
    <polygon class="st0" points="513.13 17.44 513.13 29.98 503.18 17.44 501.6 17.44 501.6 33.32 503.39 33.32 503.39 20.5 513.55 33.32 514.92 33.32 514.92 17.44 513.13 17.44"/>
    <path class="st0" d="M367.58,44.94h-5.41v15.89h5.41c4.88,0,8.42-3.34,8.42-7.99s-3.54-7.9-8.42-7.9ZM367.58,59.07h-3.57v-12.39h3.57c3.79,0,6.54,2.6,6.54,6.24s-2.69,6.15-6.54,6.15Z"/>
    <rect class="st0" x="380.55" y="44.94" width="1.84" height="15.89"/>
    <path class="st0" d="M394.36,53.99h5.07v3.84c-.97.77-2.61,1.55-4.48,1.55-3.68,0-6.15-2.61-6.15-6.54,0-3.61,2.6-6.43,5.91-6.43,2.34,0,3.61.83,4.65,1.73l.27.23,1.21-1.39-.28-.23c-1.78-1.47-3.45-2.08-5.78-2.08-4.92,0-7.86,4.17-7.86,8.2v.04c0,4.8,3.28,8.16,7.99,8.16,2.25,0,4.51-.86,6.2-2.37l.12-.11v-6.37h-6.87v1.75Z"/>
    <rect class="st0" x="406.01" y="44.94" width="1.84" height="15.89"/>
    <polygon class="st0" points="411.97 46.68 417.26 46.68 417.26 60.82 419.1 60.82 419.1 46.68 424.39 46.68 424.39 44.94 411.97 44.94 411.97 46.68"/>
    <path class="st0" d="M432.31,44.83l-7.4,16h1.95l1.93-4.25h8.5l1.93,4.25h2.02l-7.4-16h-1.54ZM436.5,54.84h-6.9l3.46-7.57,3.44,7.57Z"/>
    <polygon class="st0" points="446.65 44.94 444.81 44.94 444.81 60.82 455.56 60.82 455.56 59.07 446.65 59.07 446.65 44.94"/>
  </g>
  <rect class="st0" x="336.34" y="13.93" width="1.76" height="50.46"/>
</svg>