<?xml version="1.0" encoding="UTF-8"?>
<svg id="outline" xmlns="http://www.w3.org/2000/svg" version="1.1" viewBox="0 0 414.18 147.42">
  <!-- Generator: Adobe Illustrator 29.3.1, SVG Export Plug-In . SVG Version: 2.1.0 Build 151)  -->
  <defs>
    <style>
      .st0 {
        fill: #231f20;
      }
    </style>
  </defs>
  <g>
    <g>
      <rect class="st0" x="41.15" y="114.37" width="1.84" height="15.89"/>
      <polygon class="st0" points="59.73 126.91 49.79 114.37 48.2 114.37 48.2 130.25 49.99 130.25 49.99 117.43 60.15 130.25 61.53 130.25 61.53 114.37 59.73 114.37 59.73 126.91"/>
      <polygon class="st0" points="78.12 126.91 68.18 114.37 66.59 114.37 66.59 130.25 68.38 130.25 68.38 117.43 78.55 130.25 79.92 130.25 79.92 114.37 78.12 114.37 78.12 126.91"/>
      <path class="st0" d="M92.32,114.11c-5.01,0-8.01,4.17-8.01,8.2v.04c0,4.65,3.42,8.16,7.96,8.16,5.01,0,8.01-4.17,8.01-8.25,0-4.65-3.42-8.16-7.97-8.16ZM98.4,122.31v.04c0,3.67-2.62,6.43-6.09,6.43s-6.13-2.84-6.13-6.52,2.62-6.43,6.08-6.43,6.13,2.84,6.13,6.48Z"/>
      <polygon class="st0" points="115.79 114.37 110.06 127.78 104.35 114.37 102.32 114.37 109.31 130.36 110.77 130.36 117.76 114.37 115.79 114.37"/>
      <path class="st0" d="M125.06,114.26l-7.4,16h1.95l1.93-4.25h8.5l1.93,4.25h2.02l-7.4-16h-1.54ZM129.25,124.28h-6.9l3.46-7.57,3.44,7.57Z"/>
      <path class="st0" d="M148.51,126.53c-1.63,1.61-3.07,2.26-4.98,2.26-3.4,0-6.06-2.84-6.06-6.52s2.6-6.43,6.04-6.43c2.35,0,3.78,1.08,4.87,2.13l.25.25,1.3-1.34-.27-.25c-1.43-1.31-3.16-2.52-6.14-2.52-4.45,0-7.94,3.6-7.94,8.2v.04c0,4.65,3.4,8.16,7.9,8.16,3.08,0,4.9-1.39,6.28-2.75l.26-.25-1.27-1.23-.25.24Z"/>
      <rect class="st0" x="153.67" y="114.37" width="1.84" height="15.89"/>
      <path class="st0" d="M168.06,114.11c-5.01,0-8.01,4.17-8.01,8.2v.04c0,4.65,3.42,8.16,7.96,8.16,5.01,0,8.01-4.17,8.01-8.25,0-4.65-3.42-8.16-7.97-8.16ZM174.15,122.31v.04c0,3.67-2.62,6.43-6.09,6.43s-6.13-2.84-6.13-6.52,2.62-6.43,6.08-6.43,6.13,2.84,6.13,6.48Z"/>
      <polygon class="st0" points="171.53 111.06 169.5 110.1 166.85 113.45 168.69 113.45 171.53 111.06"/>
      <polygon class="st0" points="191.95 126.91 182.01 114.37 180.42 114.37 180.42 130.25 182.21 130.25 182.21 117.43 192.38 130.25 193.75 130.25 193.75 114.37 191.95 114.37 191.95 126.91"/>
      <path class="st0" d="M211.98,114.37h-5.41v15.89h5.41c4.88,0,8.42-3.34,8.42-7.99s-3.54-7.9-8.42-7.9ZM211.98,128.5h-3.57v-12.39h3.57c3.79,0,6.54,2.6,6.54,6.24s-2.69,6.15-6.54,6.15Z"/>
      <rect class="st0" x="224.95" y="114.37" width="1.84" height="15.89"/>
      <path class="st0" d="M238.76,123.42h5.07v3.84c-.97.77-2.61,1.55-4.48,1.55-3.68,0-6.15-2.61-6.15-6.54,0-3.61,2.6-6.43,5.91-6.43,2.34,0,3.61.83,4.65,1.73l.27.23,1.21-1.39-.28-.23c-1.78-1.47-3.45-2.08-5.78-2.08-4.92,0-7.86,4.17-7.86,8.2v.04c0,4.8,3.28,8.16,7.99,8.16,2.25,0,4.51-.86,6.2-2.37l.12-.11v-6.37h-6.87v1.75Z"/>
      <rect class="st0" x="250.41" y="114.37" width="1.84" height="15.89"/>
      <polygon class="st0" points="256.38 116.12 261.67 116.12 261.67 130.25 263.5 130.25 263.5 116.12 268.79 116.12 268.79 114.37 256.38 114.37 256.38 116.12"/>
      <path class="st0" d="M276.72,114.26l-7.4,16h1.95l1.93-4.25h8.5l1.93,4.25h2.02l-7.4-16h-1.54ZM280.9,124.28h-6.9l3.46-7.57,3.44,7.57Z"/>
      <polygon class="st0" points="291.05 128.5 291.05 114.37 289.21 114.37 289.21 130.25 299.96 130.25 299.96 128.5 291.05 128.5"/>
    </g>
    <g>
      <path class="st0" d="M41.45,61.98h-13.02v-10.54h38.07v10.54h-13.02v32.86h-12.03v-32.86Z"/>
      <path class="st0" d="M70.22,51.44h34.9v10.23h-23v6.57h20.83v9.49h-20.83v6.88h23.31v10.23h-35.21v-43.4Z"/>
      <path class="st0" d="M107.73,73.26v-.12c0-12.65,9.73-22.57,22.88-22.57,8.87,0,14.57,3.72,18.41,9.05l-9.05,7.01c-2.48-3.1-5.33-5.08-9.49-5.08-6.08,0-10.35,5.15-10.35,11.47v.12c0,6.51,4.28,11.59,10.35,11.59,4.53,0,7.19-2.11,9.8-5.27l9.05,6.45c-4.09,5.64-9.61,9.8-19.22,9.8-12.4,0-22.38-9.49-22.38-22.44Z"/>
      <path class="st0" d="M150.13,51.44h12.71l7.56,25.11,8.37-25.23h10.35l8.37,25.23,7.56-25.11h12.46l-14.51,43.71h-10.48l-8.74-24.98-8.68,24.98h-10.48l-14.51-43.71Z"/>
      <path class="st0" d="M220.5,51.44h12.09v43.4h-12.09v-43.4Z"/>
      <path class="st0" d="M235.2,88.39l6.7-8c4.28,3.41,9.05,5.21,14.07,5.21,3.22,0,4.96-1.12,4.96-2.98v-.12c0-1.8-1.43-2.79-7.32-4.15-9.24-2.11-16.37-4.71-16.37-13.64v-.12c0-8.06,6.39-13.89,16.8-13.89,7.38,0,13.14,1.98,17.85,5.77l-6.01,8.49c-3.97-2.79-8.31-4.28-12.15-4.28-2.91,0-4.34,1.24-4.34,2.79v.12c0,1.98,1.49,2.85,7.5,4.22,9.98,2.17,16.18,5.39,16.18,13.52v.12c0,8.87-7.01,14.14-17.55,14.14-7.69,0-15-2.42-20.33-7.19Z"/>
      <path class="st0" d="M276.86,51.44h34.9v10.23h-23v6.57h20.83v9.49h-20.83v6.88h23.31v10.23h-35.21v-43.4Z"/>
    </g>
  </g>
  <g id="TW_x5F_LATAM">
    <polygon class="st0" points="331.99 34.23 332.54 34.16 332.67 33.76 333.2 33.66 333.4 33.62 333.83 33.72 334.22 33.55 334.59 33.57 334.56 33.7 334.36 33.75 334.52 34.11 334.92 34.21 335.32 34.44 335.65 34.37 335.85 34.23 336.01 34.6 336.31 34.79 337.11 34.95 337.6 34.88 337.64 35.21 337.97 35.61 338.47 35.71 338.57 35.87 338.8 36.17 339.13 36.3 339.1 36.53 338.51 36.99 339.27 36.99 339.96 36.98 340.42 37.21 341.25 37.14 341.35 37.01 342.21 37 342.63 36.8 342.17 36.51 341.71 36.41 341.54 36.15 341.21 35.92 340.92 35.96 340.98 35.79 340.51 35.53 340.05 35.37 339.45 35.07 339.52 34.81 339.05 34.58 338.56 34.07 338.03 33.92 338.36 34.25 337.77 34.13 337.26 33.8 336.7 33.3 335.97 33.01 335.38 32.98 334.95 32.85 333.72 32.86 332.01 33.76 331.48 33.93 331.99 34.23"/>
    <polygon class="st0" points="340.04 39.56 340.04 39.43 339.64 39.07 339.33 38.98 339.01 38.74 338.62 38.71 338.25 38.85 337.97 38.91 337.46 38.88 337.53 39.11 337.91 39.22 338.26 39.47 338.62 39.44 339 39.73 339.32 39.63 339.31 39.4 340.04 39.56"/>
    <polygon class="st0" points="343.86 37.65 344.13 37.85 343.8 38.08 343.77 38.48 343.93 38.8 343.6 38.9 343.21 38.85 342.42 38.85 342.19 39.02 342.62 39.61 343.08 39.54 343.18 39.31 343.84 39.37 344.43 39.4 344.67 39.33 344.91 39.87 345.3 39.79 345.79 39.33 346.12 39.26 346.25 39.42 346.98 39.32 347.21 39.19 347.74 39.45 348.43 39.38 348.5 38.91 348.1 38.75 347.77 38.59 347.4 38.52 347.73 38.39 347.47 38.13 347.04 38.06 346.67 37.74 346.52 37.52 345.94 37.4 345.46 37.13 344.87 37.45 344.19 37.33 343.73 37.13 343.36 37.23 343.13 37.49 343.86 37.65"/>
    <polygon class="st0" points="350.15 40.03 350.45 39.89 351.34 39.95 351.8 39.46 351.6 39.29 351.08 39.36 349.98 39.17 349.69 39.6 349.82 39.77 349.63 39.93 350.15 40.03"/>
    <path class="st0" d="M384.24,68.2l-.47-.92-.83-.19-1.02.11-1.23-.95-1.03-.75-1.16-.55-1.36-.28-.98.36-.46-.33-.66-.1-.54-.03-.3.23-.13-.13-.17-.16-.2.27-.23.3-.03-.1.1-.3.06-.4-.17-.43-.37-.39-.56-.16-.5-.33h-.3s-.46-.29-.46-.29l-.43-.16-.2.13-.3-.13h-.63s-.3.07-.3.07l-.3.39-.25-.23.41-.35-.07-.43-.17-.23h-.33s-.43-.09-.43-.09h-.4s-.59,0-.69,0c-.1,0-.49.23-.49.23h-.5s.26-.53.26-.53l.49-.2v-.36s.33-.13.33-.13l.26-.2.03-.59.1-.26-.2-.3-.23-.39-.57-.56-.1-.63-.02-.53-.03-.2-.4-.33-.33-.43-.33-.66-.36-.16-.4-.03-.5-.16-.33-.2-.4-.16-.36-.16-.46-.13-.4.07h-.5s-.23.2-.23.2l-.33.07-.33-.1-.34-.16-.46-.03-.23-.1-.04-.33-.03-.13-.4-.26-.2.03-.27-.3-.56-.1-.13-.2v-.46s-.3-.46-.3-.46l-.23-.26-.46-.36-.56-.26-.3-.33-.33-.2-.3-.33.1-.3-.03-.13-.2-.06-.1-.23-.36-.2h-.2s-.17-.59-.17-.59l-.3-.2-.76.07-.76-.09h-.63s-.2.07-.2.07l-.3.37-.4.13-.4.07-.33-.46-.53-.33-.69.04-1.55.08-.2-.3-.07-.4-.4-.46-.66-.26-.1-.4-.46-.2-.2.36.2.16-.2.07-.1.2-.32.05-.26.42-.84-.35-.07-.48.3-.14.29-.53-.43-.29-.76.24-.1.4-.66.27-.36.37-1.06-.03-.49.4-.59.33-.23.53-.49.3-.16.53.04.33-.26.1-.33.27-.39.4-.33.13-.2.03-.2-.13-.36-.2-.4-.53-.4-.13-.43-.03-.36-.13-.1-.3-.36-.06-.69.29-.09.27.04.36-.81.13v.13s-.67.31-.67.31l-.4-.36-.58-.09-.36-.14-.22-.85-.22-.36-1.02-1.08.37-1.16v-.98s.33-.8.33-.8l-.04-.8.5-.53-.04-.85-.44-.36-.62-.14v-.4s-1.51-.15-1.51-.15l-.49.13-.62-.14-1.21.08-.8-.36.68-1.07.52-.63v-.79s.26-.18.26-.18l.44-.8-.09-1.06.44-.71.62-.53.17-.62-.18-.62-.44-.09-.35-.09-.88.09.09.35-1.06-.17-.35.27-.8.06-.35,1.4-.07.73-.96.89-.62-.17-.72.38-1.18.21-.4.07-.6-.46-.6-.39-.79-.33-.27-.66v-.99s-.6-.59-.6-.59l-.14-.53-.33-.72v-.4s0-.93,0-.93l.78-1.13-.19-.48.23-.4.06-1.38.54-.71h0s-.91-.47-.91-.47l-1.1-.31-.17-.7s.18-1.7.22-1.71c.04-.01-.45-.47-.45-.47l-.21-1.74-.45-.4-.78-.23-.83.25-.04.88-.71.21-1.02-1.06-.08-1.26-.12-.75-1.05-.67-.21-.49-1.57-.03-.3.35-3.21-.34-3.17-2.26h-2.76s.34.99.34.99l-.34,1.86,1.15,1.96-.25,1.94.68,1.31.84.48.13.79.51.73-.38,1.42,1.61,1.67.19.49.73.02-.06-.87-.16-.43-1.06-.96-.03-.9.05-.74-.21-.65-.18-.88-.48-.6.21-.5-.09-.48-.27-.86v-.88s-.61-.99-.61-.99l-.33-.53.13-.4-.14-.59.46-.8-.14-.66.73.72.93.46s.27.59.14.86c-.13.27-.32,1.13-.32,1.13l.14.86.2.33.14.81.18.53.71.52.18.79.71.79.27.79-.26.88.53.7.53.44.18.62.71.44.27.97.45,1.41.45,1.05-.35.71-.26,1.06.45.88,1.33,1.49.62.61,1.59.25.54,1.14.62.44,1.41.34.35.35,1.39,1.07,1.39.06,1.1-.62.53-.09.79.4.49.58.17.49.26.45.44.36.31.54.49.32.62.23.89.1.18.18.98.19.62.32.45-.22h.36s-.18.31-.18.31l.17.58.62.5.4.76.49.36.14.72-.15.67.35.72.18-.04.09-.31.27.31.31.36.53.36.49.14.04.85.4-.04.18.27.13.49.23-.36.49-.04.62.32.4.45.36-.04.35.54.99-.39-.4-.49.09-.45.67-.49.59-.48c.26.03.79.19.79.19l.17.46h.33s0,.2,0,.2l-.23.27.23.56.4.39.07.36.43.43-.36.3-.03.69.27.39-.33.27.17.76-.1.2-.2.36.14.49.1.66-.2.33-.59.63-.49.27-.26.46-.06.63-.2.3-.33.27-.43.1-.33.17-.36.46-.03.43-.43.56-.13.3.07.26-.29.4.17.56-.26.5.17.33.63-.04.16-.53.1-.03v.43s.23.1.23.1l-.1.4-.13.27-.43.3-.4.2-.2.43-.16.33-.19.56.04.73.37.39.1.36-.2.36.1.4.6.33.46.1.33.49.4.66.23.56.5.76.43.76.24.66.23.43-.03.46.57.59.33.66.63.72.3.73.37.56.24,1.02.5.56.47.53.43.82.83.39.86.26.36.23.73.26.47.46.7.33.53.36.5.46.66.49.14,1.16.17.56.27,1.25-.06.59.13.26.2.56-.06.89-.23.66.04.73.33.66v1.09s-.39.5-.39.5l.07.36.3.69.34,1.06-.29.46-.09,1.59-.13.53.14.59.33.39-.19.86.14.76.17.63.2.46.03.3.14.69-.13.5.2.59-.29.6.2.89-.1.53-.36.89-.03.4.14.53-.16.43.2.53-.3-.2-.26.17-.03.86.53.79-.1.17.07.46.47.69v.43s-.29.53-.29.53l.2.79.07.73-.1.4.24.5h0s-.09.89-.09.89l.21,1.45.46-.04.06-.23-.07-.2.06-.23-.03-.26-.23-.23.33-.53-.09-.22.41-.15.47.21-.1.43.04.36h-.33s.03.27.03.27l.36.23.1.46.37.46-.33.27v.5s.17.43.17.43l.5.06-.06.69-.43.43.27.26-.33-.03-.06.5-.26.2-.23-.03v-.2s-.3-.16-.3-.16l-.4.1-.36.1-.1.4.17.1.17.13-.49.37.07.4.27.43.2-.03-.07-.23-.07-.26.43-.07.17.26.17.26.36-.17.5.1.07.2-.1.33-.36-.03-.1.36-.03.46-.07.13-.13.23.07.3.63.39v.17s-.03.2-.03.2l-.23.23.36.18-.13.35-.2.3v.53s.3.33.3.33l-.13.4.27.2-.1.13-.1.4.23.15.14-.25.41.31-.28.18.27.23.56.03.1.43.5-.07.33.2.13.16.07.2.23.33.07.3.43.23.03.1.23.46.03.16.07.16.47.43.24.1.09.23.2-.03.2.29s.73.23.86.23c0,0,.01,0,.02,0,.05.09.12.23.18.35l-.33.12.1.36.4.23.13-.1.26.06.4.13.43.03.4-.1.3.1.53.03.2-.17.13.07.43-.1.59-.14.56.1.15-.09.18.02.78-.12.13-.43-.41-.08h-.3s-.46-.16-.46-.16h-.3s-.5-.33-.7-.49c-.2-.16-.8-.59-.8-.59l-.23-.33-.33-.23-.33-.06-.1-.96-.29-.12-.07-.31-.1-.13-.4-.39-.07-.33-.33-.2-.23-.46-.03-.2-.17-.23.32-1.16-.13-.1.13-.1.32.23.53-.37.04-.88-.22-.28.16-.43-.07-.3.78-.53.44-.97-.2-.06.33-.3-.14-.59-.8-.39-.8-.56-.53-.69.06-.5.79-.4.46-.5v-.33s.19-.73.19-.73l-.17-.46.19-1.16.46-.3.1-.3-.36-.06.03-.3.26-.03.2.26.26-.07.03-.59-.3-.3-.16.3-.13.03-.07-.36-.33.04-.63-.92-.1-.53.33.1.63-.17.53.16.79.03.52-.63-.2-.99.16-.5-.1-.56-.13-.23,2.37-.32,1.91-1.46.13-.63.23.06.16-.36.19-.73-.07-.56-.36.1-.43-.33-.14-.79-.57-.76-.5-.13.19-.53.23.03.23.16.63-.04.4.29.73-.17.3.1.92-.2.53-.1.43-1.07,1.02-.96.62-2.27.78-.52.34-1.92.94-.83.37-.9-.2-.59.23-.46-.07-.56-.13-.23.03-.26-.13-.4.19-.79,1.35-1.23.23-.03.76-.7.69-.07.56-.37.29-.53.57-.17.2.03.79.03.36-.13.56.1.23-.23.06-.3.16-.13.43-.17.1-.3-.2-.33.62-1.39.69-1-.03-.3.26-.43v-.46s.12-.89.12-.89l.29-1.26-.12-1.35.42-1.13-.29-.62-.14-.59.16-.79-.13-.1v-.23s.33.06.33.06l.43-.4.69-.9.23-.4.59-.66.46-.4,1.37-1.36.45-1.85-.11-2.21Z"/>
  </g>
</svg>