<?xml version="1.0" encoding="UTF-8"?>
<svg id="outline" xmlns="http://www.w3.org/2000/svg" version="1.1" viewBox="0 0 340.16 113.39">
  <!-- Generator: Adobe Illustrator 29.3.1, SVG Export Plug-In . SVG Version: 2.1.0 Build 151)  -->
  <defs>
    <style>
      .st0 {
        fill: #006eb3;
      }

      .st1 {
        fill: #8a8c8e;
      }
    </style>
  </defs>
  <g>
    <path class="st1" d="M46.25,80.33h-5.41v15.89h5.41c4.88,0,8.42-3.34,8.42-7.99s-3.54-7.9-8.42-7.9ZM46.25,94.47h-3.57v-12.39h3.57c3.79,0,6.54,2.6,6.54,6.24s-2.69,6.15-6.54,6.15Z"/>
    <rect class="st1" x="59.38" y="80.33" width="1.84" height="15.89"/>
    <path class="st1" d="M73.37,89.39h5.07v3.84c-.97.77-2.61,1.55-4.48,1.55-3.68,0-6.15-2.61-6.15-6.54,0-3.61,2.6-6.43,5.91-6.43,2.34,0,3.61.83,4.65,1.73l.27.23,1.21-1.39-.28-.23c-1.78-1.47-3.45-2.08-5.78-2.08-4.92,0-7.86,4.17-7.86,8.2v.04c0,4.8,3.28,8.16,7.99,8.16,2.25,0,4.51-.86,6.2-2.37l.12-.11v-6.37h-6.87v1.75Z"/>
    <rect class="st1" x="85.19" y="80.33" width="1.84" height="15.89"/>
    <polygon class="st1" points="91.33 82.08 96.62 82.08 96.62 96.22 98.45 96.22 98.45 82.08 103.75 82.08 103.75 80.33 91.33 80.33 91.33 82.08"/>
    <path class="st1" d="M111.84,80.22l-7.4,16h1.95l1.93-4.25h8.5l1.93,4.25h2.02l-7.4-16h-1.54ZM116.03,90.24h-6.9l3.46-7.57,3.44,7.57Z"/>
    <polygon class="st1" points="126.34 80.33 124.51 80.33 124.51 96.22 135.26 96.22 135.26 94.47 126.34 94.47 126.34 80.33"/>
    <rect class="st1" x="147.45" y="80.33" width="1.84" height="15.89"/>
    <polygon class="st1" points="166.21 92.87 156.26 80.33 154.67 80.33 154.67 96.22 156.47 96.22 156.47 83.39 166.63 96.22 168 96.22 168 80.33 166.21 80.33 166.21 92.87"/>
    <polygon class="st1" points="184.77 92.87 174.83 80.33 173.24 80.33 173.24 96.22 175.03 96.22 175.03 83.39 185.19 96.22 186.57 96.22 186.57 80.33 184.77 80.33 184.77 92.87"/>
    <path class="st1" d="M199.14,80.07c-5.01,0-8.01,4.17-8.01,8.2v.04c0,4.65,3.42,8.16,7.96,8.16,5.01,0,8.01-4.17,8.01-8.25,0-4.65-3.42-8.16-7.97-8.16ZM205.22,88.27v.04c0,3.67-2.62,6.43-6.09,6.43s-6.13-2.84-6.13-6.52,2.62-6.43,6.08-6.43,6.13,2.84,6.13,6.48Z"/>
    <polygon class="st1" points="217.05 93.74 211.35 80.33 209.31 80.33 216.3 96.33 217.76 96.33 224.75 80.33 222.78 80.33 217.05 93.74"/>
    <path class="st1" d="M232.22,80.22l-7.4,16h1.95l1.93-4.25h8.5l1.93,4.25h2.02l-7.4-16h-1.54ZM236.41,90.24h-6.9l3.46-7.57,3.44,7.57Z"/>
    <polygon class="st1" points="241.86 82.08 247.15 82.08 247.15 96.22 248.98 96.22 248.98 82.08 254.27 82.08 254.27 80.33 241.86 80.33 241.86 82.08"/>
    <rect class="st1" x="258.58" y="80.33" width="1.84" height="15.89"/>
    <path class="st1" d="M273.13,80.07c-5.01,0-8.01,4.17-8.01,8.2v.04c0,4.65,3.42,8.16,7.96,8.16,5.01,0,8.01-4.17,8.01-8.25,0-4.65-3.42-8.16-7.97-8.16ZM279.22,88.27v.04c0,3.67-2.62,6.43-6.09,6.43s-6.13-2.84-6.13-6.52,2.62-6.43,6.08-6.43,6.13,2.84,6.13,6.48Z"/>
    <polygon class="st1" points="297.2 80.33 297.2 92.87 287.25 80.33 285.66 80.33 285.66 96.22 287.46 96.22 287.46 83.39 297.62 96.22 298.99 96.22 298.99 80.33 297.2 80.33"/>
  </g>
  <g>
    <path class="st0" d="M41.45,27.94h-13.02v-10.54h38.07v10.54h-13.02v32.86h-12.03V27.94Z"/>
    <path class="st0" d="M70.22,17.4h34.9v10.23h-23v6.57h20.83v9.49h-20.83v6.88h23.31v10.23h-35.21V17.4Z"/>
    <path class="st0" d="M107.73,39.22v-.12c0-12.65,9.73-22.57,22.88-22.57,8.87,0,14.57,3.72,18.41,9.05l-9.05,7.01c-2.48-3.1-5.33-5.08-9.49-5.08-6.08,0-10.35,5.15-10.35,11.47v.12c0,6.51,4.28,11.59,10.35,11.59,4.53,0,7.19-2.11,9.8-5.27l9.05,6.45c-4.09,5.64-9.61,9.8-19.22,9.8-12.4,0-22.38-9.49-22.38-22.44Z"/>
    <path class="st1" d="M150.13,17.4h12.71l7.56,25.11,8.37-25.23h10.35l8.37,25.23,7.56-25.11h12.46l-14.51,43.71h-10.48l-8.74-24.98-8.68,24.98h-10.48l-14.51-43.71Z"/>
    <path class="st1" d="M220.5,17.4h12.09v43.4h-12.09V17.4Z"/>
    <path class="st1" d="M235.2,54.35l6.7-8c4.28,3.41,9.05,5.21,14.07,5.21,3.22,0,4.96-1.12,4.96-2.98v-.12c0-1.8-1.43-2.79-7.32-4.15-9.24-2.11-16.37-4.71-16.37-13.64v-.12c0-8.06,6.39-13.89,16.8-13.89,7.38,0,13.14,1.98,17.85,5.77l-6.01,8.49c-3.97-2.79-8.31-4.28-12.15-4.28-2.91,0-4.34,1.24-4.34,2.79v.12c0,1.98,1.49,2.85,7.5,4.22,9.98,2.17,16.18,5.39,16.18,13.52v.12c0,8.87-7.01,14.14-17.55,14.14-7.69,0-15-2.42-20.33-7.19Z"/>
    <path class="st1" d="M276.86,17.4h34.9v10.23h-23v6.57h20.83v9.49h-20.83v6.88h23.31v10.23h-35.21V17.4Z"/>
  </g>
</svg>