<?xml version="1.0" encoding="UTF-8"?>
<svg id="outline" xmlns="http://www.w3.org/2000/svg" version="1.1" viewBox="0 0 428.68 113.22">
  <!-- Generator: Adobe Illustrator 29.3.1, SVG Export Plug-In . SVG Version: 2.1.0 Build 151)  -->
  <defs>
    <style>
      .st0 {
        fill: #fff;
      }
    </style>
  </defs>
  <g>
    <g>
      <path class="st0" d="M46.25,80.16h-5.41v15.89h5.41c4.88,0,8.42-3.34,8.42-7.99s-3.54-7.9-8.42-7.9ZM46.25,94.3h-3.57v-12.39h3.57c3.79,0,6.54,2.6,6.54,6.24s-2.69,6.15-6.54,6.15Z"/>
      <rect class="st0" x="59.38" y="80.16" width="1.84" height="15.89"/>
      <path class="st0" d="M73.37,89.22h5.07v3.84c-.97.77-2.61,1.55-4.48,1.55-3.68,0-6.15-2.61-6.15-6.54,0-3.61,2.6-6.43,5.91-6.43,2.34,0,3.61.83,4.65,1.73l.27.23,1.21-1.39-.28-.23c-1.78-1.47-3.45-2.08-5.78-2.08-4.92,0-7.86,4.17-7.86,8.2v.04c0,4.8,3.28,8.16,7.99,8.16,2.25,0,4.51-.86,6.2-2.37l.12-.11v-6.37h-6.87v1.75Z"/>
      <rect class="st0" x="85.19" y="80.16" width="1.84" height="15.89"/>
      <polygon class="st0" points="91.33 81.91 96.62 81.91 96.62 96.05 98.45 96.05 98.45 81.91 103.75 81.91 103.75 80.16 91.33 80.16 91.33 81.91"/>
      <path class="st0" d="M111.84,80.05l-7.4,16h1.95l1.93-4.25h8.5l1.93,4.25h2.02l-7.4-16h-1.54ZM116.03,90.07h-6.9l3.46-7.57,3.44,7.57Z"/>
      <polygon class="st0" points="126.34 80.16 124.51 80.16 124.51 96.05 135.26 96.05 135.26 94.3 126.34 94.3 126.34 80.16"/>
      <rect class="st0" x="147.45" y="80.16" width="1.84" height="15.89"/>
      <polygon class="st0" points="166.21 92.7 156.26 80.16 154.67 80.16 154.67 96.05 156.47 96.05 156.47 83.23 166.63 96.05 168 96.05 168 80.16 166.21 80.16 166.21 92.7"/>
      <polygon class="st0" points="184.77 92.7 174.83 80.16 173.24 80.16 173.24 96.05 175.03 96.05 175.03 83.23 185.19 96.05 186.57 96.05 186.57 80.16 184.77 80.16 184.77 92.7"/>
      <path class="st0" d="M199.14,79.9c-5.01,0-8.01,4.17-8.01,8.2v.04c0,4.65,3.42,8.16,7.96,8.16,5.01,0,8.01-4.17,8.01-8.25,0-4.65-3.42-8.16-7.97-8.16ZM205.22,88.11v.04c0,3.67-2.62,6.43-6.09,6.43s-6.13-2.84-6.13-6.52,2.62-6.43,6.08-6.43,6.13,2.84,6.13,6.48Z"/>
      <polygon class="st0" points="217.05 93.58 211.35 80.16 209.31 80.16 216.3 96.16 217.76 96.16 224.75 80.16 222.78 80.16 217.05 93.58"/>
      <path class="st0" d="M232.22,80.05l-7.4,16h1.95l1.93-4.25h8.5l1.93,4.25h2.02l-7.4-16h-1.54ZM236.41,90.07h-6.9l3.46-7.57,3.44,7.57Z"/>
      <polygon class="st0" points="241.86 81.91 247.15 81.91 247.15 96.05 248.98 96.05 248.98 81.91 254.27 81.91 254.27 80.16 241.86 80.16 241.86 81.91"/>
      <rect class="st0" x="258.58" y="80.16" width="1.84" height="15.89"/>
      <path class="st0" d="M273.13,79.9c-5.01,0-8.01,4.17-8.01,8.2v.04c0,4.65,3.42,8.16,7.96,8.16,5.01,0,8.01-4.17,8.01-8.25,0-4.65-3.42-8.16-7.97-8.16ZM279.22,88.11v.04c0,3.67-2.62,6.43-6.09,6.43s-6.13-2.84-6.13-6.52,2.62-6.43,6.08-6.43,6.13,2.84,6.13,6.48Z"/>
      <polygon class="st0" points="297.2 80.16 297.2 92.7 287.25 80.16 285.66 80.16 285.66 96.05 287.46 96.05 287.46 83.23 297.62 96.05 298.99 96.05 298.99 80.16 297.2 80.16"/>
    </g>
    <g>
      <path class="st0" d="M41.45,27.77h-13.02v-10.54h38.07v10.54h-13.02v32.86h-12.03V27.77Z"/>
      <path class="st0" d="M70.22,17.23h34.9v10.23h-23v6.57h20.83v9.49h-20.83v6.88h23.31v10.23h-35.21V17.23Z"/>
      <path class="st0" d="M107.73,39.05v-.12c0-12.65,9.73-22.57,22.88-22.57,8.87,0,14.57,3.72,18.41,9.05l-9.05,7.01c-2.48-3.1-5.33-5.08-9.49-5.08-6.08,0-10.35,5.15-10.35,11.47v.12c0,6.51,4.28,11.59,10.35,11.59,4.53,0,7.19-2.11,9.8-5.27l9.05,6.45c-4.09,5.64-9.61,9.8-19.22,9.8-12.4,0-22.38-9.49-22.38-22.44Z"/>
      <path class="st0" d="M150.13,17.23h12.71l7.56,25.11,8.37-25.23h10.35l8.37,25.23,7.56-25.11h12.46l-14.51,43.71h-10.48l-8.74-24.98-8.68,24.98h-10.48l-14.51-43.71Z"/>
      <path class="st0" d="M220.5,17.23h12.09v43.4h-12.09V17.23Z"/>
      <path class="st0" d="M235.2,54.18l6.7-8c4.28,3.41,9.05,5.21,14.07,5.21,3.22,0,4.96-1.12,4.96-2.98v-.12c0-1.8-1.43-2.79-7.32-4.15-9.24-2.11-16.37-4.71-16.37-13.64v-.12c0-8.06,6.39-13.89,16.8-13.89,7.38,0,13.14,1.98,17.85,5.77l-6.01,8.49c-3.97-2.79-8.31-4.28-12.15-4.28-2.91,0-4.34,1.24-4.34,2.79v.12c0,1.98,1.49,2.85,7.5,4.22,9.98,2.17,16.18,5.39,16.18,13.52v.12c0,8.87-7.01,14.14-17.55,14.14-7.69,0-15-2.42-20.33-7.19Z"/>
      <path class="st0" d="M276.86,17.23h34.9v10.23h-23v6.57h20.83v9.49h-20.83v6.88h23.31v10.23h-35.21V17.23Z"/>
    </g>
  </g>
  <g id="TW_x5F_Africa">
    <polygon class="st0" points="399.11 71.94 399.11 71.08 398.73 70.22 398.67 69.63 398.28 69.3 398.22 68.51 397.82 68.97 397.42 69.23 397.55 69.82 397.41 70.15 397.08 70.41 396.95 70.67 396.62 70.53 396.49 70.93 396.48 71.58 396.15 71.78 396.15 71.45 395.89 71.58 395.75 71.97 395.49 72.1 395.29 72.63 394.56 72.95 394.43 73.14 394.1 73.14 393.64 73.14 393.64 73.4 393.05 73.26 392.58 73.52 392.51 74.05 392.05 74.64 391.97 76.21 392.03 77 392.15 77.73 392.21 78.32 390.88 79.75 390.68 80.34 390.64 81.51 391.05 82.78 391.45 83.2 391.18 83.63 392.15 84.63 393.34 84.17 394.26 84.06 395.15 82.5 395.1 81.76 396.28 80.14 396.39 78.87 397.2 78.09 398.03 75.21 397.83 74.75 398.43 73.77 398.51 73.47 398.31 72.92 398.9 73.12 399.36 73.06 399.11 71.94"/>
    <path class="st0" d="M399.56,42.93l.7-.86-.28-.7-.52-.14-.4.32-.66.13-.99.32-1.32.05-.66.52-1.25.12-1.26.71-2.02-1.73.47-.85-.72-.73-.98-.34-.5-1.16-.81-.17-.32-.59h-.39s-.26-.33-.26-.33l-.33.13-.99-1.29-.11-1.74-1.55-.93-.13-.6.27-.8-.65-.9-.12-1.32-1.04-.93-.84-1.26.33-.39-1.11-1.26-1.24-1.46-.65-1.25-.65-1.11-.71-1.13-.19-.66.06-.62v-.59s-.44-.74-.44-.74l-.49-.2-.46-.3-.5.13-.3.08-.49-.07-.13.44-.6.59-.66-.2-.72.06-.66-.27-1.18-.08-1.05-.34-.92-.4-.2.13-.92-.21-.26-.66-2.43.24-.54,1.57-.6.92-1.38-.21-1.97-.54-.72-.53-.45-.92-1.38-.34-1.64-.08-.26-.2-.59-.33-.72-.6-.59-.33.66-.65.2-.52v-.59s-.58-.27-.58-.27l-.12-.77.47-1.05-.66.39-.52-.53-1.18.12-.73.72-.52-.4h-1.38s-.6.38-.6.38l-.52-.27h-1.05s-.86.25-.86.25l-2.43.09-1.19.71-.66.19-.73.8-.97-.41h-.41s-.4.39-.4.39l-.53-.08-.81.05-.75-.11-.48-.06-.43.4-.33.82-.55.76-1.38.05-.4,1.39-.86.64-.34,1.57.26.2-.08,1.25-1.39,1.11-1.45.78-.92.19-.34.79-.47.78-.93.91-.14.46-.07.72-.79.65-.4.33-.21,1.05-.27.46s-.4.52-.53.72c-.13.2-.47.65-.47.65l.25,1.19.79.14-.2.66v.53s.25.86.25.86l.26.73-.33.65-.2.85.13.66-.27.52-.79.39-.2.33.46.4.06.39.39.27-.13.2v.39s-.08.66-.08.66l.46.33-.13.2.39.2.26.27.59.14.13.94.71.39.45.6s.58,1.06.84,1.45c.26.4.91,1.65.91,1.65l.92.14.19.26.65.27.39.53.59.53.26.13.65.73,1.44,1,1.53-.8,2.36-.34,2.3.28.79.14.79-.52.37-.6,1.34-.04,1.68-.67,1.81.04.98.6.32.59.59.53,1.44.54.33-.13h1.05s.65.34.65.34l.39.27.39.2.19.46.19.26v.66s-.01.72-.01.72l-.4.59-.14.39.06.46-.13.2v.33s-.21.72-.21.72l-.53.26-.07.2.19.59.13.33.65.99,1.37,1.2.98,1.13.58,1.19.36.18-.17.34.26.2.39.86.19,1.32-.07.85.19.53.64,1.58-.27.39.06.92-.92,1.1-.4.4-.47,1.11v1.54s-.42,1.09-.42,1.09l.13.59.4-.06-.53.46.12.86.19.4.91,1.13.32,1.19.65.73.45,1.06-.08,1.31.32,1.38.45,1.52v.92s.18,1.19.18,1.19l.91,1.19h.33s-.14.4-.14.4c0,0,.26.53.32.79.06.26.32,1.25.32,1.25l1.1,1.46-.18,1.06-.43.38.45.79.26.53-.04.3.16.29.53-.06.13.53,1.18.47.47-.52h.33s.66-.52.66-.52l.72.07.6-.26,1.12.14.73-.39.66.14.73-.26.59.14.45-.47.47-.12,2.39-2.48,1.12-.78,1.47-2.16.93-.91.58-1.39.04-1.17-.26-.33.75-.56,1.43-.33.6-.6.4-1.05-.24-.59.26-1.71-.32-1.52-.19-.26.66-.45.27-.46.53-.59-.13-.36.66.04.2-.78,1-.52.47-.67,2.14-.68,1.26-1.44-.33-.27-.13-.66.31-.8-.06-.33.14-.66-.17-.58.26-1.65-.13-.33-.33.19.07-.39-.52-.53-.69-1.43.34-2.72-.33-.4.21-1.51.73-.59.21-1.18.39-.06.07-.46.46-.39.2-.52h.46s.4-.45.4-.45l.46-.46.2-.79,1.39-1.1,2.52-1.75,2.53-3.4,1.67-1.58-.39-1.3.33-.65,1.37-1.4-.7-1.3Z"/>
  </g>
</svg>