<?xml version="1.0" encoding="UTF-8"?>
<svg id="outline" xmlns="http://www.w3.org/2000/svg" version="1.1" viewBox="0 0 368.5 141.73">
  <!-- Generator: Adobe Illustrator 29.3.1, SVG Export Plug-In . SVG Version: 2.1.0 Build 151)  -->
  <defs>
    <style>
      .st0 {
        fill: #006eb3;
      }

      .st1 {
        fill: #8a8c8e;
      }

      .st2 {
        fill: #fff;
      }
    </style>
  </defs>
  <rect class="st1" width="368.5" height="141.73" rx="6.31" ry="6.31"/>
  <g>
    <g>
      <rect class="st2" x="68.44" y="94.5" width="1.84" height="15.89"/>
      <polygon class="st2" points="87.07 107.05 77.12 94.5 75.54 94.5 75.54 110.39 77.33 110.39 77.33 97.57 87.49 110.39 88.86 110.39 88.86 94.5 87.07 94.5 87.07 107.05"/>
      <path class="st2" d="M101.31,94.24c-5.01,0-8.01,4.17-8.01,8.2v.04c0,4.65,3.42,8.16,7.96,8.16,5.01,0,8.01-4.17,8.01-8.25,0-4.65-3.42-8.16-7.97-8.16ZM107.39,102.45v.04c0,3.67-2.62,6.43-6.09,6.43s-6.13-2.84-6.13-6.52,2.62-6.43,6.08-6.43,6.13,2.84,6.13,6.48Z"/>
      <polygon class="st2" points="124.82 94.5 119.1 107.92 113.39 94.5 111.35 94.5 118.34 110.5 119.8 110.5 126.79 94.5 124.82 94.5"/>
      <path class="st2" d="M133.7,94.39l-7.4,16h1.95l1.93-4.25h8.5l1.93,4.25h2.02l-7.4-16h-1.54ZM137.89,104.41h-6.9l3.46-7.57,3.44,7.57Z"/>
      <path class="st2" d="M157.19,106.66c-1.63,1.61-3.07,2.26-4.98,2.26-3.4,0-6.06-2.84-6.06-6.52s2.6-6.43,6.04-6.43c2.35,0,3.78,1.08,4.87,2.13l.25.25,1.3-1.34-.27-.25c-1.43-1.31-3.16-2.52-6.14-2.52-4.45,0-7.94,3.6-7.94,8.25,0,4.13,2.73,7.42,6.57,8.04l-1.56,2.29,1.88.89,1.51-3.07c2.22-.12,3.96-.95,5.77-2.74l.26-.25-1.27-1.23-.25.24Z"/>
      <path class="st2" d="M168.15,94.39l-7.4,16h1.95l1.93-4.25h8.5l1.93,4.25h2.02l-7.4-16h-1.54ZM172.33,104.41h-6.9l3.46-7.57,3.44,7.57Z"/>
      <path class="st2" d="M166.9,93.57c.33-.77.49-.8.76-.8s.7.18,1.12.36c.55.23,1.11.47,1.61.47,1.31,0,1.82-1.14,2.12-2.14l.1-.35-1.45-.39-.12.28c-.33.75-.49.79-.76.79s-.7-.18-1.12-.36c-.55-.23-1.11-.47-1.61-.47-1.31,0-1.82,1.16-2.12,2.16l-.1.35,1.45.39.12-.28Z"/>
      <path class="st2" d="M187.16,94.24c-5.01,0-8.01,4.17-8.01,8.2v.04c0,4.65,3.42,8.16,7.96,8.16,5.01,0,8.01-4.17,8.01-8.25,0-4.65-3.42-8.16-7.97-8.16ZM193.24,102.45v.04c0,3.67-2.62,6.43-6.09,6.43s-6.13-2.84-6.13-6.52,2.62-6.43,6.08-6.43,6.13,2.84,6.13,6.48Z"/>
      <path class="st2" d="M212.77,94.5h-5.41v15.89h5.41c4.88,0,8.42-3.34,8.42-7.99s-3.54-7.9-8.42-7.9ZM212.77,108.64h-3.57v-12.39h3.57c3.79,0,6.54,2.6,6.54,6.24s-2.69,6.15-6.54,6.15Z"/>
      <rect class="st2" x="225.78" y="94.5" width="1.84" height="15.89"/>
      <path class="st2" d="M239.64,103.56h5.07v3.84c-.97.77-2.61,1.55-4.48,1.55-3.68,0-6.15-2.61-6.15-6.54,0-3.61,2.6-6.43,5.91-6.43,2.34,0,3.61.83,4.65,1.73l.27.23,1.21-1.39-.28-.23c-1.78-1.47-3.45-2.08-5.78-2.08-4.92,0-7.86,4.17-7.86,8.2v.04c0,4.8,3.28,8.16,7.99,8.16,2.25,0,4.51-.86,6.2-2.37l.12-.11v-6.37h-6.87v1.75Z"/>
      <rect class="st2" x="251.33" y="94.5" width="1.84" height="15.89"/>
      <polygon class="st2" points="257.34 96.25 262.63 96.25 262.63 110.39 264.47 110.39 264.47 96.25 269.76 96.25 269.76 94.5 257.34 94.5 257.34 96.25"/>
      <path class="st2" d="M277.72,94.39l-7.4,16h1.95l1.93-4.25h8.5l1.93,4.25h2.02l-7.4-16h-1.54ZM281.91,104.41h-6.9l3.46-7.57,3.44,7.57Z"/>
      <polygon class="st2" points="292.1 108.64 292.1 94.5 290.26 94.5 290.26 110.39 301.01 110.39 301.01 108.64 292.1 108.64"/>
    </g>
    <g>
      <path class="st0" d="M55.62,42.11h-13.02v-10.54h38.07v10.54h-13.02v32.86h-12.03v-32.86Z"/>
      <path class="st0" d="M84.39,31.57h34.9v10.23h-23v6.57h20.83v9.49h-20.83v6.88h23.31v10.23h-35.21V31.57Z"/>
      <path class="st0" d="M121.9,53.4v-.12c0-12.65,9.73-22.57,22.88-22.57,8.87,0,14.57,3.72,18.41,9.05l-9.05,7.01c-2.48-3.1-5.33-5.08-9.49-5.08-6.08,0-10.35,5.15-10.35,11.47v.12c0,6.51,4.28,11.59,10.35,11.59,4.53,0,7.19-2.11,9.8-5.27l9.05,6.45c-4.09,5.64-9.61,9.8-19.22,9.8-12.4,0-22.38-9.49-22.38-22.44Z"/>
      <path class="st2" d="M164.31,31.57h12.71l7.56,25.11,8.37-25.23h10.35l8.37,25.23,7.56-25.11h12.46l-14.51,43.71h-10.48l-8.74-24.98-8.68,24.98h-10.48l-14.51-43.71Z"/>
      <path class="st2" d="M234.68,31.57h12.09v43.4h-12.09V31.57Z"/>
      <path class="st2" d="M249.37,68.52l6.7-8c4.28,3.41,9.05,5.21,14.07,5.21,3.22,0,4.96-1.12,4.96-2.98v-.12c0-1.8-1.43-2.79-7.32-4.15-9.24-2.11-16.37-4.71-16.37-13.64v-.12c0-8.06,6.39-13.89,16.8-13.89,7.38,0,13.14,1.98,17.85,5.77l-6.01,8.49c-3.97-2.79-8.31-4.28-12.15-4.28-2.91,0-4.34,1.24-4.34,2.79v.12c0,1.98,1.49,2.85,7.5,4.22,9.98,2.17,16.18,5.39,16.18,13.52v.12c0,8.87-7.01,14.14-17.55,14.14-7.69,0-15-2.42-20.33-7.19Z"/>
      <path class="st2" d="M291.03,31.57h34.9v10.23h-23v6.57h20.83v9.49h-20.83v6.88h23.31v10.23h-35.21V31.57Z"/>
    </g>
  </g>
</svg>