<?xml version="1.0" encoding="UTF-8"?>
<svg id="outline" xmlns="http://www.w3.org/2000/svg" viewBox="0 0 355.95 116.45">
  <defs>
    <style>
      .cls-1 {
        fill: #fff;
      }

      .cls-2 {
        fill: #006eb3;
      }
    </style>
  </defs>
  <g>
    <g>
      <rect class="cls-1" x="25.84" y="97.24" width="1.84" height="15.89"/>
      <polygon class="cls-1" points="44.47 109.78 34.52 97.24 32.93 97.24 32.93 113.13 34.73 113.13 34.73 100.31 44.89 113.13 46.26 113.13 46.26 97.24 44.47 97.24 44.47 109.78"/>
      <path class="cls-1" d="M58.71,96.98c-5.01,0-8.01,4.17-8.01,8.2v.04c0,4.65,3.42,8.16,7.96,8.16,5.01,0,8.01-4.17,8.01-8.25,0-4.65-3.42-8.16-7.97-8.16h.01ZM64.79,105.19v.04c0,3.67-2.62,6.43-6.09,6.43s-6.13-2.84-6.13-6.52,2.62-6.43,6.08-6.43,6.13,2.84,6.13,6.48h0Z"/>
      <polygon class="cls-1" points="82.22 97.24 76.49 110.66 70.78 97.24 68.75 97.24 75.74 113.24 77.2 113.24 84.19 97.24 82.22 97.24"/>
      <path class="cls-1" d="M91.1,97.13l-7.4,16h1.95l1.93-4.25h8.5l1.93,4.25h2.02l-7.4-16h-1.54.01ZM95.29,107.15h-6.9l3.46-7.57,3.44,7.57Z"/>
      <path class="cls-1" d="M114.59,109.4c-1.63,1.61-3.07,2.26-4.98,2.26-3.4,0-6.06-2.84-6.06-6.52s2.6-6.43,6.04-6.43c2.35,0,3.78,1.08,4.87,2.13l.25.25,1.3-1.34-.27-.25c-1.43-1.31-3.16-2.52-6.14-2.52-4.45,0-7.94,3.6-7.94,8.25,0,4.13,2.73,7.42,6.57,8.04l-1.56,2.29,1.88.89,1.51-3.07c2.22-.12,3.96-.95,5.77-2.74l.26-.25-1.27-1.23-.25.24h.02Z"/>
      <path class="cls-1" d="M125.54,97.13l-7.4,16h1.95l1.93-4.25h8.5l1.93,4.25h2.02l-7.4-16h-1.54,0ZM129.73,107.15h-6.9l3.46-7.57,3.44,7.57h0Z"/>
      <path class="cls-1" d="M124.3,96.31c.33-.77.49-.8.76-.8s.7.18,1.12.36c.55.23,1.11.47,1.61.47,1.31,0,1.82-1.14,2.12-2.14l.1-.35-1.45-.39-.12.28c-.33.75-.49.79-.76.79s-.7-.18-1.12-.36c-.55-.23-1.11-.47-1.61-.47-1.31,0-1.82,1.16-2.12,2.16l-.1.35,1.45.39.12-.28h0Z"/>
      <path class="cls-1" d="M144.55,96.98c-5.01,0-8.01,4.17-8.01,8.2v.04c0,4.65,3.42,8.16,7.96,8.16,5.01,0,8.01-4.17,8.01-8.25,0-4.65-3.42-8.16-7.97-8.16h0ZM150.64,105.19v.04c0,3.67-2.62,6.43-6.09,6.43s-6.13-2.84-6.13-6.52,2.62-6.43,6.08-6.43,6.13,2.84,6.13,6.48h0Z"/>
      <path class="cls-1" d="M170.17,97.24h-5.41v15.89h5.41c4.88,0,8.42-3.34,8.42-7.99s-3.54-7.9-8.42-7.9ZM170.17,111.38h-3.57v-12.39h3.57c3.79,0,6.54,2.6,6.54,6.24s-2.69,6.15-6.54,6.15Z"/>
      <rect class="cls-1" x="183.18" y="97.24" width="1.84" height="15.89"/>
      <path class="cls-1" d="M197.04,106.3h5.07v3.84c-.97.77-2.61,1.55-4.48,1.55-3.68,0-6.15-2.61-6.15-6.54,0-3.61,2.6-6.43,5.91-6.43,2.34,0,3.61.83,4.65,1.73l.27.23,1.21-1.39-.28-.23c-1.78-1.47-3.45-2.08-5.78-2.08-4.92,0-7.86,4.17-7.86,8.2v.04c0,4.8,3.28,8.16,7.99,8.16,2.25,0,4.51-.86,6.2-2.37l.12-.11v-6.37h-6.87v1.77Z"/>
      <rect class="cls-1" x="208.73" y="97.24" width="1.84" height="15.89"/>
      <polygon class="cls-1" points="214.74 98.99 220.03 98.99 220.03 113.13 221.86 113.13 221.86 98.99 227.15 98.99 227.15 97.24 214.74 97.24 214.74 98.99"/>
      <path class="cls-1" d="M235.12,97.13l-7.4,16h1.95l1.93-4.25h8.5l1.93,4.25h2.02l-7.4-16h-1.54.01ZM239.31,107.15h-6.9l3.46-7.57,3.44,7.57Z"/>
      <polygon class="cls-1" points="249.5 111.38 249.5 97.24 247.66 97.24 247.66 113.13 258.41 113.13 258.41 111.38 249.5 111.38"/>
    </g>
    <g>
      <path class="cls-2" d="M13.02,44.85H0v-10.54h38.07v10.54h-13.02v32.86h-12.03v-32.86Z"/>
      <path class="cls-2" d="M41.79,34.31h34.9v10.23h-23v6.57h20.83v9.49h-20.83v6.88h23.31v10.23h-35.21s0-43.4,0-43.4Z"/>
      <path class="cls-2" d="M79.3,56.13v-.12c0-12.65,9.73-22.57,22.88-22.57,8.87,0,14.57,3.72,18.41,9.05l-9.05,7.01c-2.48-3.1-5.33-5.08-9.49-5.08-6.08,0-10.35,5.15-10.35,11.47v.12c0,6.51,4.28,11.59,10.35,11.59,4.53,0,7.19-2.11,9.8-5.27l9.05,6.45c-4.09,5.64-9.61,9.8-19.22,9.8-12.4,0-22.38-9.49-22.38-22.44h0Z"/>
      <path class="cls-1" d="M121.7,34.31h12.71l7.56,25.11,8.37-25.23h10.35l8.37,25.23,7.56-25.11h12.46l-14.51,43.71h-10.48l-8.74-24.98-8.68,24.98h-10.48l-14.51-43.71h.02Z"/>
      <path class="cls-1" d="M192.07,34.31h12.09v43.4h-12.09v-43.4Z"/>
      <path class="cls-1" d="M206.77,71.26l6.7-8c4.28,3.41,9.05,5.21,14.07,5.21,3.22,0,4.96-1.12,4.96-2.98v-.12c0-1.8-1.43-2.79-7.32-4.15-9.24-2.11-16.37-4.71-16.37-13.64v-.12c0-8.06,6.39-13.89,16.8-13.89,7.38,0,13.14,1.98,17.85,5.77l-6.01,8.49c-3.97-2.79-8.31-4.28-12.15-4.28-2.91,0-4.34,1.24-4.34,2.79v.12c0,1.98,1.49,2.85,7.5,4.22,9.98,2.17,16.18,5.39,16.18,13.52v.12c0,8.87-7.01,14.14-17.55,14.14-7.69,0-15-2.42-20.33-7.19h.01Z"/>
      <path class="cls-1" d="M248.43,34.31h34.9v10.23h-23v6.57h20.83v9.49h-20.83v6.88h23.31v10.23h-35.21s0-43.4,0-43.4Z"/>
    </g>
  </g>
  <g id="TW_LATAM">
    <polygon class="cls-2" points="303.56 17.1 304.11 17.03 304.24 16.63 304.77 16.53 304.97 16.5 305.4 16.59 305.79 16.43 306.16 16.44 306.13 16.58 305.93 16.62 306.09 16.99 306.49 17.08 306.89 17.31 307.22 17.24 307.42 17.11 307.58 17.47 307.88 17.67 308.68 17.83 309.17 17.76 309.21 18.09 309.54 18.48 310.04 18.58 310.14 18.74 310.37 19.04 310.7 19.17 310.67 19.4 310.08 19.87 310.84 19.86 311.53 19.86 311.99 20.09 312.82 20.02 312.92 19.88 313.78 19.88 314.2 19.68 313.74 19.38 313.28 19.29 313.11 19.02 312.78 18.79 312.49 18.84 312.55 18.66 312.08 18.4 311.62 18.24 311.02 17.95 311.09 17.68 310.62 17.45 310.13 16.94 309.6 16.8 309.93 17.13 309.34 17 308.83 16.67 308.27 16.18 307.54 15.89 306.95 15.86 306.52 15.73 305.29 15.74 303.58 16.64 303.05 16.81 303.56 17.1"/>
    <polygon class="cls-2" points="311.61 22.44 311.61 22.3 311.21 21.94 310.9 21.85 310.58 21.62 310.19 21.59 309.82 21.72 309.54 21.79 309.03 21.76 309.1 21.99 309.48 22.1 309.83 22.35 310.19 22.31 310.57 22.61 310.89 22.51 310.88 22.28 311.61 22.44"/>
    <polygon class="cls-2" points="315.43 20.53 315.7 20.73 315.37 20.96 315.34 21.36 315.5 21.67 315.17 21.77 314.78 21.72 313.99 21.73 313.76 21.89 314.19 22.49 314.65 22.42 314.75 22.19 315.41 22.25 316 22.28 316.24 22.21 316.48 22.74 316.87 22.67 317.36 22.2 317.69 22.13 317.82 22.3 318.55 22.2 318.78 22.06 319.31 22.32 320 22.25 320.07 21.79 319.67 21.63 319.34 21.46 318.97 21.4 319.3 21.27 319.04 21 318.61 20.94 318.24 20.61 318.09 20.4 317.51 20.27 317.03 20 316.44 20.33 315.76 20.2 315.3 20 314.93 20.1 314.7 20.37 315.43 20.53"/>
    <polygon class="cls-2" points="321.72 22.9 322.02 22.77 322.91 22.83 323.37 22.33 323.17 22.17 322.65 22.24 321.55 22.04 321.26 22.48 321.39 22.64 321.2 22.81 321.72 22.9"/>
    <path class="cls-2" d="M355.81,51.07l-.47-.92-.83-.19-1.02.11-1.23-.95-1.03-.75-1.16-.55-1.36-.28-.98.36-.46-.33-.66-.1-.54-.03-.3.23-.13-.13-.17-.16-.2.27-.23.3-.03-.1.1-.3.06-.4-.17-.43-.37-.39-.56-.16-.5-.33h-.3l-.46-.29-.43-.16-.2.13-.3-.13h-.63l-.3.07-.3.39-.25-.23.41-.35-.07-.43-.17-.23h-.33l-.43-.09h-1.09c-.1,0-.49.23-.49.23h-.5l.26-.53.49-.2v-.36l.33-.13.26-.2.03-.59.1-.26-.2-.3-.23-.39-.57-.56-.1-.63-.02-.53-.03-.2-.4-.33-.33-.43-.33-.66-.36-.16-.4-.03-.5-.16-.33-.2-.4-.16-.36-.16-.46-.13-.4.07h-.5l-.23.2-.33.07-.33-.1-.34-.16-.46-.03-.23-.1-.04-.33-.03-.13-.4-.26-.2.03-.27-.3-.56-.1-.13-.2v-.46l-.3-.46-.23-.26-.46-.36-.56-.26-.3-.33-.33-.2-.3-.33.1-.3-.03-.13-.2-.06-.1-.23-.36-.2h-.2l-.17-.59-.3-.2-.76.07-.76-.09h-.63l-.2.07-.3.37-.4.13-.4.07-.33-.46-.53-.33-.69.04-1.55.08-.2-.3-.07-.4-.4-.46-.66-.26-.1-.4-.46-.2-.2.36.2.16-.2.07-.1.2-.32.05-.26.42-.84-.35-.07-.48.3-.14.29-.53-.43-.29-.76.24-.1.4-.66.27-.36.37-1.06-.03-.49.4-.59.33-.23.53-.49.3-.16.53.04.33-.26.1-.33.27-.39.4-.33.13-.2.03-.2-.13-.36-.2-.4-.53-.4-.13-.43-.03-.36-.13-.1-.3-.36-.06-.69.29-.09.27.04.36-.81.13v.13l-.67.31-.4-.36-.58-.09-.36-.14-.22-.85-.22-.36-1.02-1.08.37-1.16v-.98l.33-.8-.04-.8.5-.53-.04-.85-.44-.36-.62-.14v-.4l-1.51-.15-.49.13-.62-.14-1.21.08-.8-.36.68-1.07.52-.63v-.79l.26-.18.44-.8-.09-1.06.44-.71.62-.53.17-.62-.18-.62-.44-.09-.35-.09-.88.09.09.35-1.06-.17-.35.27-.8.06-.35,1.4-.07.73-.96.89-.62-.17-.72.38-1.18.21-.4.07-.6-.46-.6-.39-.79-.33-.27-.66v-.99l-.6-.59-.14-.53-.33-.72v-1.33l.78-1.13-.19-.48.23-.4.06-1.38.54-.71h0l-.91-.47-1.1-.31-.17-.7s.18-1.7.22-1.71-.45-.47-.45-.47l-.21-1.74-.45-.4-.78-.23-.83.25-.04.88-.71.21-1.02-1.06-.08-1.26-.12-.75-1.05-.67-.21-.49-1.57-.03-.3.35-3.21-.34-3.17-2.26h-2.76l.34.99-.34,1.86,1.15,1.96-.25,1.94.68,1.31.84.48.13.79.51.73-.38,1.42,1.61,1.67.19.49.73.02-.06-.87-.16-.43-1.06-.96-.03-.9.05-.74-.21-.65-.18-.88-.48-.6.21-.5-.09-.48-.27-.86v-.88l-.61-.99-.33-.53.13-.4-.14-.59.46-.8-.14-.66.73.72.93.46s.27.59.14.86c-.13.27-.32,1.13-.32,1.13l.14.86.2.33.14.81.18.53.71.52.18.79.71.79.27.79-.26.88.53.7.53.44.18.62.71.44.27.97.45,1.41.45,1.05-.35.71-.26,1.06.45.88,1.33,1.49.62.61,1.59.25.54,1.14.62.44,1.41.34.35.35,1.39,1.07,1.39.06,1.1-.62.53-.09.79.4.49.58.17.49.26.45.44.36.31.54.49.32.62.23.89.1.18.18.98.19.62.32.45-.22h.36l-.18.31.17.58.62.5.4.76.49.36.14.72-.15.67.35.72.18-.04.09-.31.27.31.31.36.53.36.49.14.04.85.4-.04.18.27.13.49.23-.36.49-.04.62.32.4.45.36-.04.35.54.99-.39-.4-.49.09-.45.67-.49.59-.48c.26.03.79.19.79.19l.17.46h.33v.2l-.23.27.23.56.4.39.07.36.43.43-.36.3-.03.69.27.39-.33.27.17.76-.1.2-.2.36.14.49.1.66-.2.33-.59.63-.49.27-.26.46-.06.63-.2.3-.33.27-.43.1-.33.17-.36.46-.03.43-.43.56-.13.3.07.26-.29.4.17.56-.26.5.17.33.63-.04.16-.53.1-.03v.43l.23.1-.1.4-.13.27-.43.3-.4.2-.2.43-.16.33-.19.56.04.73.37.39.1.36-.2.36.1.4.6.33.46.1.33.49.4.66.23.56.5.76.43.76.24.66.23.43-.03.46.57.59.33.66.63.72.3.73.37.56.24,1.02.5.56.47.53.43.82.83.39.86.26.36.23.73.26.47.46.7.33.53.36.5.46.66.49.14,1.16.17.56.27,1.25-.06.59.13.26.2.56-.06.89-.23.66.04.73.33.66v1.09l-.39.5.07.36.3.69.34,1.06-.29.46-.09,1.59-.13.53.14.59.33.39-.19.86.14.76.17.63.2.46.03.3.14.69-.13.5.2.59-.29.6.2.89-.1.53-.36.89-.03.4.14.53-.16.43.2.53-.3-.2-.26.17-.03.86.53.79-.1.17.07.46.47.69v.43l-.29.53.2.79.07.73-.1.4.24.5h0l-.09.89.21,1.45.46-.04.06-.23-.07-.2.06-.23-.03-.26-.23-.23.33-.53-.09-.22.41-.15.47.21-.1.43.04.36h-.33l.03.27.36.23.1.46.37.46-.33.27v.5l.17.43.5.06-.06.69-.43.43.27.26-.33-.03-.06.5-.26.2-.23-.03v-.2l-.3-.16-.4.1-.36.1-.1.4.17.1.17.13-.49.37.07.4.27.43.2-.03-.07-.23-.07-.26.43-.07.17.26.17.26.36-.17.5.1.07.2-.1.33-.36-.03-.1.36-.03.46-.07.13-.13.23.07.3.63.39v.17l-.03.2-.23.23.36.18-.13.35-.2.3v.53l.3.33-.13.4.27.2-.1.13-.1.4.23.15.14-.25.41.31-.28.18.27.23.56.03.1.43.5-.07.33.2.13.16.07.2.23.33.07.3.43.23.03.1.23.46.03.16.07.16.47.43.24.1.09.23.2-.03.2.29s.73.23.86.23h.02c.05.09.12.23.18.35l-.33.12.1.36.4.23.13-.1.26.06.4.13.43.03.4-.1.3.1.53.03.2-.17.13.07.43-.1.59-.14.56.1.15-.09.18.02.78-.12.13-.43-.41-.08h-.3l-.46-.16h-.3s-.5-.33-.7-.49-.8-.59-.8-.59l-.23-.33-.33-.23-.33-.06-.1-.96-.29-.12-.07-.31-.1-.13-.4-.39-.07-.33-.33-.2-.23-.46-.03-.2-.17-.23.32-1.16-.13-.1.13-.1.32.23.53-.37.04-.88-.22-.28.16-.43-.07-.3.78-.53.44-.97-.2-.06.33-.3-.14-.59-.8-.39-.8-.56-.53-.69.06-.5.79-.4.46-.5v-.33l.19-.73-.17-.46.19-1.16.46-.3.1-.3-.36-.06.03-.3.26-.03.2.26.26-.07.03-.59-.3-.3-.16.3-.13.03-.07-.36-.33.04-.63-.92-.1-.53.33.1.63-.17.53.16.79.03.52-.63-.2-.99.16-.5-.1-.56-.13-.23,2.37-.32,1.91-1.46.13-.63.23.06.16-.36.19-.73-.07-.56-.36.1-.43-.33-.14-.79-.57-.76-.5-.13.19-.53.23.03.23.16.63-.04.4.29.73-.17.3.1.92-.2.53-.1.43-1.07,1.02-.96.62-2.27.78-.52.34-1.92.94-.83.37-.9-.2-.59.23-.46-.07-.56-.13-.23.03-.26-.13-.4.19-.79,1.35-1.23.23-.03.76-.7.69-.07.56-.37.29-.53.57-.17.2.03.79.03.36-.13.56.1.23-.23.06-.3.16-.13.43-.17.1-.3-.2-.33.62-1.39.69-1-.03-.3.26-.43v-.46l.12-.89.29-1.26-.12-1.35.42-1.13-.29-.62-.14-.59.16-.79-.13-.1v-.23l.33.06.43-.4.69-.9.23-.4.59-.66.46-.4,1.37-1.36.45-1.85-.11-2.21-.03-.02Z"/>
  </g>
</svg>