<?xml version="1.0" encoding="UTF-8"?>
<svg id="outline" xmlns="http://www.w3.org/2000/svg" version="1.1" viewBox="0 0 368.5 141.73">
  <!-- Generator: Adobe Illustrator 29.3.1, SVG Export Plug-In . SVG Version: 2.1.0 Build 151)  -->
  <defs>
    <style>
      .st0 {
        fill: #231f20;
      }

      .st1 {
        fill: #fff;
      }
    </style>
  </defs>
  <rect class="st1" width="368.5" height="141.73" rx="6.31" ry="6.31"/>
  <g>
    <g>
      <path class="st0" d="M60.42,94.5h-5.41v15.89h5.41c4.88,0,8.42-3.34,8.42-7.99s-3.54-7.9-8.42-7.9ZM60.42,108.64h-3.57v-12.39h3.57c3.79,0,6.54,2.6,6.54,6.24s-2.69,6.15-6.54,6.15Z"/>
      <rect class="st0" x="73.56" y="94.5" width="1.84" height="15.89"/>
      <path class="st0" d="M87.54,103.56h5.07v3.84c-.97.77-2.61,1.55-4.48,1.55-3.68,0-6.15-2.61-6.15-6.54,0-3.61,2.6-6.43,5.91-6.43,2.34,0,3.61.83,4.65,1.73l.27.23,1.21-1.39-.28-.23c-1.78-1.47-3.45-2.08-5.78-2.08-4.92,0-7.86,4.17-7.86,8.2v.04c0,4.8,3.28,8.16,7.99,8.16,2.25,0,4.51-.86,6.2-2.37l.12-.11v-6.37h-6.87v1.75Z"/>
      <rect class="st0" x="99.36" y="94.5" width="1.84" height="15.89"/>
      <polygon class="st0" points="105.5 96.25 110.79 96.25 110.79 110.39 112.63 110.39 112.63 96.25 117.92 96.25 117.92 94.5 105.5 94.5 105.5 96.25"/>
      <path class="st0" d="M126.01,94.39l-7.4,16h1.95l1.93-4.25h8.5l1.93,4.25h2.02l-7.4-16h-1.54ZM130.2,104.41h-6.9l3.46-7.57,3.44,7.57Z"/>
      <polygon class="st0" points="140.52 94.5 138.68 94.5 138.68 110.39 149.43 110.39 149.43 108.64 140.52 108.64 140.52 94.5"/>
      <rect class="st0" x="161.63" y="94.5" width="1.84" height="15.89"/>
      <polygon class="st0" points="180.38 107.05 170.44 94.5 168.85 94.5 168.85 110.39 170.64 110.39 170.64 97.57 180.8 110.39 182.18 110.39 182.18 94.5 180.38 94.5 180.38 107.05"/>
      <polygon class="st0" points="198.95 107.05 189 94.5 187.41 94.5 187.41 110.39 189.2 110.39 189.2 97.57 199.37 110.39 200.74 110.39 200.74 94.5 198.95 94.5 198.95 107.05"/>
      <path class="st0" d="M213.31,94.24c-5.01,0-8.01,4.17-8.01,8.2v.04c0,4.65,3.42,8.16,7.96,8.16,5.01,0,8.01-4.17,8.01-8.25,0-4.65-3.42-8.16-7.97-8.16ZM219.4,102.45v.04c0,3.67-2.62,6.43-6.09,6.43s-6.13-2.84-6.13-6.52,2.62-6.43,6.08-6.43,6.13,2.84,6.13,6.48Z"/>
      <polygon class="st0" points="231.23 107.92 225.52 94.5 223.49 94.5 230.47 110.5 231.93 110.5 238.92 94.5 236.95 94.5 231.23 107.92"/>
      <path class="st0" d="M246.4,94.39l-7.4,16h1.95l1.93-4.25h8.5l1.93,4.25h2.02l-7.4-16h-1.54ZM250.58,104.41h-6.9l3.46-7.57,3.44,7.57Z"/>
      <polygon class="st0" points="256.03 96.25 261.32 96.25 261.32 110.39 263.16 110.39 263.16 96.25 268.45 96.25 268.45 94.5 256.03 94.5 256.03 96.25"/>
      <rect class="st0" x="272.75" y="94.5" width="1.84" height="15.89"/>
      <path class="st0" d="M287.31,94.24c-5.01,0-8.01,4.17-8.01,8.2v.04c0,4.65,3.42,8.16,7.96,8.16,5.01,0,8.01-4.17,8.01-8.25,0-4.65-3.42-8.16-7.97-8.16ZM293.39,102.45v.04c0,3.67-2.62,6.43-6.09,6.43s-6.13-2.84-6.13-6.52,2.62-6.43,6.08-6.43,6.13,2.84,6.13,6.48Z"/>
      <polygon class="st0" points="311.37 94.5 311.37 107.05 301.42 94.5 299.84 94.5 299.84 110.39 301.63 110.39 301.63 97.57 311.79 110.39 313.16 110.39 313.16 94.5 311.37 94.5"/>
    </g>
    <g>
      <path class="st0" d="M55.62,42.11h-13.02v-10.54h38.07v10.54h-13.02v32.86h-12.03v-32.86Z"/>
      <path class="st0" d="M84.39,31.57h34.9v10.23h-23v6.57h20.83v9.49h-20.83v6.88h23.31v10.23h-35.21V31.57Z"/>
      <path class="st0" d="M121.9,53.4v-.12c0-12.65,9.73-22.57,22.88-22.57,8.87,0,14.57,3.72,18.41,9.05l-9.05,7.01c-2.48-3.1-5.33-5.08-9.49-5.08-6.08,0-10.35,5.15-10.35,11.47v.12c0,6.51,4.28,11.59,10.35,11.59,4.53,0,7.19-2.11,9.8-5.27l9.05,6.45c-4.09,5.64-9.61,9.8-19.22,9.8-12.4,0-22.38-9.49-22.38-22.44Z"/>
      <path class="st0" d="M164.31,31.57h12.71l7.56,25.11,8.37-25.23h10.35l8.37,25.23,7.56-25.11h12.46l-14.51,43.71h-10.48l-8.74-24.98-8.68,24.98h-10.48l-14.51-43.71Z"/>
      <path class="st0" d="M234.68,31.57h12.09v43.4h-12.09V31.57Z"/>
      <path class="st0" d="M249.37,68.52l6.7-8c4.28,3.41,9.05,5.21,14.07,5.21,3.22,0,4.96-1.12,4.96-2.98v-.12c0-1.8-1.43-2.79-7.32-4.15-9.24-2.11-16.37-4.71-16.37-13.64v-.12c0-8.06,6.39-13.89,16.8-13.89,7.38,0,13.14,1.98,17.85,5.77l-6.01,8.49c-3.97-2.79-8.31-4.28-12.15-4.28-2.91,0-4.34,1.24-4.34,2.79v.12c0,1.98,1.49,2.85,7.5,4.22,9.98,2.17,16.18,5.39,16.18,13.52v.12c0,8.87-7.01,14.14-17.55,14.14-7.69,0-15-2.42-20.33-7.19Z"/>
      <path class="st0" d="M291.03,31.57h34.9v10.23h-23v6.57h20.83v9.49h-20.83v6.88h23.31v10.23h-35.21V31.57Z"/>
    </g>
  </g>
</svg>