<?xml version="1.0" encoding="UTF-8"?>
<svg id="outline" xmlns="http://www.w3.org/2000/svg" version="1.1" viewBox="0 0 476.14 154.85">
  <!-- Generator: Adobe Illustrator 29.3.1, SVG Export Plug-In . SVG Version: 2.1.0 Build 151)  -->
  <defs>
    <style>
      .st0 {
        fill: #fff;
      }
    </style>
  </defs>
  <g>
    <g>
      <path class="st0" d="M46.25,121.79h-5.41v15.89h5.41c4.88,0,8.42-3.34,8.42-7.99s-3.54-7.9-8.42-7.9ZM46.25,135.93h-3.57v-12.39h3.57c3.79,0,6.54,2.6,6.54,6.24s-2.69,6.15-6.54,6.15Z"/>
      <rect class="st0" x="59.38" y="121.79" width="1.84" height="15.89"/>
      <path class="st0" d="M73.37,130.85h5.07v3.84c-.97.77-2.61,1.55-4.48,1.55-3.68,0-6.15-2.61-6.15-6.54,0-3.61,2.6-6.43,5.91-6.43,2.34,0,3.61.83,4.65,1.73l.27.23,1.21-1.39-.28-.23c-1.78-1.47-3.45-2.08-5.78-2.08-4.92,0-7.86,4.17-7.86,8.2v.04c0,4.8,3.28,8.16,7.99,8.16,2.25,0,4.51-.86,6.2-2.37l.12-.11v-6.37h-6.87v1.75Z"/>
      <rect class="st0" x="85.19" y="121.79" width="1.84" height="15.89"/>
      <polygon class="st0" points="91.33 123.54 96.62 123.54 96.62 137.68 98.45 137.68 98.45 123.54 103.75 123.54 103.75 121.79 91.33 121.79 91.33 123.54"/>
      <path class="st0" d="M111.84,121.68l-7.4,16h1.95l1.93-4.25h8.5l1.93,4.25h2.02l-7.4-16h-1.54ZM116.03,131.7h-6.9l3.46-7.57,3.44,7.57Z"/>
      <polygon class="st0" points="126.34 121.79 124.51 121.79 124.51 137.68 135.26 137.68 135.26 135.93 126.34 135.93 126.34 121.79"/>
      <rect class="st0" x="147.45" y="121.79" width="1.84" height="15.89"/>
      <polygon class="st0" points="166.21 134.33 156.26 121.79 154.67 121.79 154.67 137.68 156.47 137.68 156.47 124.85 166.63 137.68 168 137.68 168 121.79 166.21 121.79 166.21 134.33"/>
      <polygon class="st0" points="184.77 134.33 174.83 121.79 173.24 121.79 173.24 137.68 175.03 137.68 175.03 124.85 185.19 137.68 186.57 137.68 186.57 121.79 184.77 121.79 184.77 134.33"/>
      <path class="st0" d="M199.14,121.53c-5.01,0-8.01,4.17-8.01,8.2v.04c0,4.65,3.42,8.16,7.96,8.16,5.01,0,8.01-4.17,8.01-8.25,0-4.65-3.42-8.16-7.97-8.16ZM205.22,129.73v.04c0,3.67-2.62,6.43-6.09,6.43s-6.13-2.84-6.13-6.52,2.62-6.43,6.08-6.43,6.13,2.84,6.13,6.48Z"/>
      <polygon class="st0" points="217.05 135.2 211.35 121.79 209.31 121.79 216.3 137.79 217.76 137.79 224.75 121.79 222.78 121.79 217.05 135.2"/>
      <path class="st0" d="M232.22,121.68l-7.4,16h1.95l1.93-4.25h8.5l1.93,4.25h2.02l-7.4-16h-1.54ZM236.41,131.7h-6.9l3.46-7.57,3.44,7.57Z"/>
      <polygon class="st0" points="241.86 123.54 247.15 123.54 247.15 137.68 248.98 137.68 248.98 123.54 254.27 123.54 254.27 121.79 241.86 121.79 241.86 123.54"/>
      <rect class="st0" x="258.58" y="121.79" width="1.84" height="15.89"/>
      <path class="st0" d="M273.13,121.53c-5.01,0-8.01,4.17-8.01,8.2v.04c0,4.65,3.42,8.16,7.96,8.16,5.01,0,8.01-4.17,8.01-8.25,0-4.65-3.42-8.16-7.97-8.16ZM279.22,129.73v.04c0,3.67-2.62,6.43-6.09,6.43s-6.13-2.84-6.13-6.52,2.62-6.43,6.08-6.43,6.13,2.84,6.13,6.48Z"/>
      <polygon class="st0" points="297.2 121.79 297.2 134.33 287.25 121.79 285.66 121.79 285.66 137.68 287.46 137.68 287.46 124.85 297.62 137.68 298.99 137.68 298.99 121.79 297.2 121.79"/>
    </g>
    <g>
      <path class="st0" d="M41.45,69.4h-13.02v-10.54h38.07v10.54h-13.02v32.86h-12.03v-32.86Z"/>
      <path class="st0" d="M70.22,58.86h34.9v10.23h-23v6.57h20.83v9.49h-20.83v6.88h23.31v10.23h-35.21v-43.4Z"/>
      <path class="st0" d="M107.73,80.68v-.12c0-12.65,9.73-22.57,22.88-22.57,8.87,0,14.57,3.72,18.41,9.05l-9.05,7.01c-2.48-3.1-5.33-5.08-9.49-5.08-6.08,0-10.35,5.15-10.35,11.47v.12c0,6.51,4.28,11.59,10.35,11.59,4.53,0,7.19-2.11,9.8-5.27l9.05,6.45c-4.09,5.64-9.61,9.8-19.22,9.8-12.4,0-22.38-9.49-22.38-22.44Z"/>
      <path class="st0" d="M150.13,58.86h12.71l7.56,25.11,8.37-25.23h10.35l8.37,25.23,7.56-25.11h12.46l-14.51,43.71h-10.48l-8.74-24.98-8.68,24.98h-10.48l-14.51-43.71Z"/>
      <path class="st0" d="M220.5,58.86h12.09v43.4h-12.09v-43.4Z"/>
      <path class="st0" d="M235.2,95.81l6.7-8c4.28,3.41,9.05,5.21,14.07,5.21,3.22,0,4.96-1.12,4.96-2.98v-.12c0-1.8-1.43-2.79-7.32-4.15-9.24-2.11-16.37-4.71-16.37-13.64v-.12c0-8.06,6.39-13.89,16.8-13.89,7.38,0,13.14,1.98,17.85,5.77l-6.01,8.49c-3.97-2.79-8.31-4.28-12.15-4.28-2.91,0-4.34,1.24-4.34,2.79v.12c0,1.98,1.49,2.85,7.5,4.22,9.98,2.17,16.18,5.39,16.18,13.52v.12c0,8.87-7.01,14.14-17.55,14.14-7.69,0-15-2.42-20.33-7.19Z"/>
      <path class="st0" d="M276.86,58.86h34.9v10.23h-23v6.57h20.83v9.49h-20.83v6.88h23.31v10.23h-35.21v-43.4Z"/>
    </g>
  </g>
  <g>
    <g>
      <path class="st0" d="M344.02,70.79l.61.49-.5.92,1.11-.43-1.14,1.21.13.63-.35.93.12.95.65-.6.7-.84.31.37-.07.5-.05,1.25-.33.46-.34.77.42,1.27.92.5.66-.76.45.64,1.28-.58.46.33.49-.45-1.01,1.85.41,1.74,1.21,1.14-.2,1.09-1.28.58-1.41-.05-.97.91-.34.61.45.49.95-.12.12.95-.66.76-1.11.31-.84,1.35.28.79,1.44-.73.75.97,1.08.35,1.57-.1.61.37-.79.25-2.2.23-1.27.42-.5.77-1.28.74-.5.77-1.29.89.92.5.81-.6,1.42-.1.81-.6,1.39.68,1.61-1.2-.14-.48,1.43-.42,1.22.83,1.12-.59.79-.28,2.66.38,3.52-2.03.33-.46-.77-.34-1.87-.23.64-.29.51-1.08,1.1.04.35-1.08.36-1.24-.73-1.44-1.15-.82-1.17-.2-.06.9-.74-.61.18-.62s.21-1.4-.39-2.21c-.6-.81-1.07-.82-1.07-.82l.81-.58-1.39-1.32-1.38-.21.04-1.1-.87-1.91-1.69-1-.96.44.03-.78.96-.59.96-.59-1.08-.35.96-.44.66-.92.05-1.25.37-1.4-.76-.66-1.87-.38-1.45,1.04-.99.55.17-.98.81-1.16,1.31-.28.1-2.01-1.4-.21-1.13.74-1.25-.05-1.28.58.28.79-.96.59-.67,1.07.25.94-.88-.81-.95.12-.34.77.94.03.75.81Z"/>
      <polygon class="st0" points="333.9 90.02 335.03 89.12 335.16 90.07 336.57 89.96 337.23 89.2 338.14 90.02 338.57 89.28 339.49 89.19 340.39 88.38 341.96 88.43 342.59 88.46 343.39 88.02 342.92 87.51 343.97 85.89 343.53 84.1 344.11 82.89 343.15 81.73 343.64 81.12 344.6 80.69 344.17 79.42 343.56 78.92 343.76 77.99 342.36 77.47 341.74 77.45 340.46 78.03 340.63 77.56 339.22 77.67 338.09 78.41 337.29 79.01 338.83 79.69 337.56 80.12 337.67 81.37 336.75 80.87 335.98 80.37 335.04 80.49 334.07 81.09 335.14 82.07 333.89 81.86 333.85 82.8 335.1 83.16 334.3 83.45 336.41 83.76 336.39 83.94 335.22 84.11 335.19 84.89 334.38 85.65 335.46 86.16 334.19 86.42 333.22 87.17 333.84 87.51 332.88 88.1 332.53 88.87 333.64 88.76 332.96 89.99 333.9 90.02"/>
      <polygon class="st0" points="336.4 58.06 337.57 56.67 338.79 56.54 339.88 56.56 340.84 55.64 340.7 54.69 341.33 54.86 342.29 53.79 341.36 53.14 342.31 52.85 341.93 51.92 342.19 50.8 341.5 49.92 340.34 49.67 340.03 49.04 340.84 47.8 340.07 47.31 340.86 46.86 339.46 46.52 337.87 47.58 337.42 46.32 335.85 46.6 335.38 46.75 335.35 48.32 334.56 48.61 333.62 48.44 333.16 47.96 332.06 47.78 332.68 48.42 331.43 48.24 330.19 47.59 329.55 48.2 329.84 49.3 328.62 47.71 328.14 48.17 328.16 48.73 326.7 49.24 326.08 49.07 326.42 47.82 325.49 47.02 324.25 46.53 323.63 46.36 323.14 47.13 324.08 47.15 323.44 47.76 324.21 48.41 323.73 49.02 323.12 48.38 322.51 47.43 321.57 47.41 321.07 48.97 322 49.46 320.58 49.74 319.95 49.73 319.78 50.51 322.44 50.88 323.44 51.78 323.19 52.46 321.46 52.58 320.83 52.73 320.82 53.51 323.79 53.73 324.26 54.05 324.08 54.83 324.28 55.35 323.11 55.78 322.34 55.74 322.56 56.61 324.21 56.56 325.14 56.89 325.44 57.37 326.07 57.22 328.35 59.27 331.82 60.07 333.1 58.62 336.4 58.06"/>
      <path class="st0" d="M367.95,55.26l.15.63-.32.62.78.64v1.1s.77-.15.77-.15l-.48.54.78.4-.49,1.25.78.32-.79.46-.33.94.94.33.61,1.26-1.09-.8-.17.78.44,2.2,1.64.45.77,1.1.99-.29.66.67,2.25-.72,2.04-1.79.94-1.81.15.63,1.11-1.08-.61-1.58,2.02,1.59v.78s-.49.46-.49.46l.45,1.42.77,1.11.78.17-.48.93.46,1.1,1.08,1.27.62.32v1.1s1.22,1.74,1.22,1.74h-.78s-.17,1.09-.17,1.09l.93.95.05.16.03.86-.52.59,1.52.29.79-.3,1.1.17.49-1.25-.14-1.41.63-.15.63-.46.93.48s.48-.93,1.11-1.24c.63-.31,1.1-.46,1.27-.92.16-.47.81-2.34.81-2.34l-.77-1.26.33-1.41-.3-.94.17-.78-.46-.63,1.1-.3.63-.15,1.11-.93.8-.93-.5-.5,1.46-1.37-.15-.47.02-1.25-1.09-.95-.61-1.26-1.25-.64-1.41-.02.19-2.66-.46-.95.51-3.29.95-.46.16-.62,1.27-1.24,1.27-.92,1.57.02.65-1.72,1.58-1.39-.29-1.88-.46-.95,1.27-.92-.77-.79,1.57-.45-1.09-.95,1.87.49.8-1.56,1.72.02,1.25.49.64-1.25-.03,2.19.92,1.27-.32.47.65.59-1.45.19v.78s-1.44,1.24-1.44,1.24l-.33,1.41-1.26.77-.8.93-.32.78-1.27,1.08-.7,3.44,1.1,2.05-.26,3.75,2.54,2.23,1.41-.14,1.56.96,2.52-1.22,1.34-1.04,2.19.18,1.26-1.32,2.06.1.91-.6.6-1.78,1.53-.89.79-1.84.69-.1,1.65-3.63-.56-1.63-2.34-1.37v-2.02l-1.13-1.13-.2-1.09-1.33-1.09-.08-4.04-1.58-1.46-.16-2.43,1.13-1.01.02-1.77-2.16-1.58-.34-2.47.95-1.01-.06-1.7,1.86-1.78-.73-.45-.63.46-.68-.15.38-.79-1.19-.3.56-.18.16-.47.63.16.95-1.09-1.09-.67-1.54.22-.97-.38-.95.46.48-.93-1.32.11-.87-.6-.99,1.18-.56.02.14-1.05-1.11.42-.49.79-.65-.3.51-.46-1.57-.18s-.93-.48-1.1-.01c-.16.47-.17,1.25-.17,1.25l1.41.17-.48.46h-.47s-.78-.02-.78-.02l-.62-.48-.63.46.62.63-1.26.77-.77-1.11-3.29-.04-.17.78,1.25.33.31.63-1.25-.02-.79.77-.63.46-.8,1.09-.14-1.41-.77-.79-.64,1.25-1.25-.02-.64.78.78.32-1.57.45-.63.62-.33.94-1.73.61.3,1.1,1.1.17.3,1.1-.93-.64-.94.3-.02,1.25-.93-.48-.32.78-.94.14-.33,1.25,1.4.49-.17.78-1.25-.49.3,1.26.3.79-1.41-.02-.96,1.4.46.79-1.1.14,1.4,1.11-.59.2-.98-.69-.17,1.1.46.63-1.1.3-.64.93.77.79-.63.15-1.1.46-.95.62-.8,1.09.46,1.1.78.32,1.1-.14.17-.78,1.74-.92.62.48-.63.15-1.11.61-.32.78-1.1.46-.48.93-.62-.48-.62-.95-.94.14-.48.46-.8.93.77.95-.32.78-1.25-.33-.78-.17-1.11.93.15.47.3.94-1.1-.17-1.11.93-.63.15.32.95-.95-.49-.78-.17-.48.78-1.1.46v.78s1-.11,1-.11l-.03.71-.98-.12-1.41.3v.78s.93.01.93.01l1.72.65-1.88-.02-1.1.3-.17,1.25.78.48-.47.31Z"/>
      <path class="st0" d="M449.26,95.17l.9-1.13-.58-1.21-2.17.1-.76-.75-2.39.53-2.36-1.25-2.51.35-1.36-1.04-.13-1-.7-.81-2.29-.51.63-2.02-.65-.56-4.76-.26-.73.56-.97.26.21-1.46-.86-.86.1-1.36,2.08-.3.52-1.39c.09-.07-1.11-.66-1.11-.66l-.43-.99-1.49-.46-.73-1.16-.46-1.39.17-1.22-1.27-1.71-1.47-.17-1.61.51-1.13-.9-1.3-.22-.95-1.56-.9-.58.29-1.44-.76-.24-.44-.9.57-2.07-.75-1.78-.21-1.66.96-1.17v-1.67h-.01s-.47.47-.47.47l-.78.3-1.57.45-.77-.79-1.72-.17-3.76,1.68-.95,1.55.62.79-.32.46.77.94,1.41-.56-.06,5.42-2.03.13-.3-1.56-2.01-1.58-1.58,1.54-.49,2.02-1.1.77,1.06,3.29.33.57-.73.91c-.51.57-1.19,1.47-1.19,1.47l-1.61,1.6-1.38.4-.61-1.72-4.54,1.2-1.27,1.55-1.23-.11-.43.99-.81.26-.6.19-1.31-.76-1.55-.8-1.25.14.16-.78-1.73.76-1.41.61-.93.05-.15-1.32h-1.09s-.61-1.11-.61-1.11l-.15-.78.16-.78-.76-1.57,1.12-.32.77-.91,1.04-.12-.05-1.68-.96-.31-.57-.91-.2-.18-1.04-.41-.63.73-.25,1.47-1.47-.71s-.58.54-.6.56c-.03.03-1.24.48-1.24.48l-.23,1.17.31,1.5,1.35.07-.5,2.65.36,1.26,1.18,1.25-.33,1.4-.94.46-1.24-.64-.88.44-.62.31-.47.94-.78-.31-2.34.62-.94,1.56-1.41.31-.63,2.19-1.25,1.09.78.47-1.09.16-.47.78-.94.47-2.34,1.4-.94,1.4-.94,1.4-2.19.78.47.62h-.78s-1.09.78-1.09.78l-1.09-.94-.31-.62h-.78s-1.25,0-1.25,0l.78.94v.78s.47.16.47.16l.16,1.09-1.87.47-1.25-.63-1.56.57-1.64-.11-.55,1.09v.47s.47.78.47.78l1.25.63h1.25s.78.63.78.63l1.25.63.16,1.09s1.69.81,2,1.28c.31.47,1.09,1.09,1.09,1.09l.47.94-.31.62,1.4,2.03.31,1.25-1.79-.06-.31,3.09-2.09,2.25-2.37.88-3.25-1.19-1.4.16-1.09-.47h-1.25s-1.09.47-1.09.47l-1.4-.16-.16-.94-1.72-.16-1.56.62.47.62-1.87.47-.63.62.31,2.19.47.62.94.16-1.09.47-.16,2.34.62.47-.31.47-.63,3.9-1.68,2.22,1.05.75-.16.78,1.09.31.46,2.36-1.08,1.7.94.31,1.09-.47.94.47,2.34-.47,1.25,1.87,2.62.67,1.75-.2,1.56-1.09,2.03-.15,3.08-.12.51-1.59.68-.99,1.66-.42v-1.09s1.41-1.25,1.41-1.25l.47-1.4-.78-1.25.78-2.65,1.41-1.4.63-1.09,2.81-.78.91-.97,1.28-.12.47-1.56.16-1.4-.76-2.14,4.35-.35,2.34,1.09,1.87-.31,1.25-1.25,1.09-.16s.47-1.72.94-1.87c.47-.16,2.19-1.09,2.65-.62.47.47,1.56,1.56,1.56,1.56l.94.62.78,2.34,1.56,1.25.78,1.09,1.72.78,1.4,1.25.47.78,3.59.63.94,1.41,1.87,1.41.94,1.56.47,1.87-.78.62-.63,2.03,1.09.16,2.19-1.56-.16-1.09,1.25-1.25-.94-1.41-.71-.36.72-1.81.72.11.74.77,1.65.19-.16-1.09-1.25-1.25-2.19-.94-1.87-.94.31-1.25h-1.56s-1.72-.16-1.72-.16l-1.4-1.56-1.25-2.81-2.18-2.34-1.4-.31-.62-1.25.94-.31-.94-2.03v-1.25s.78.16.78.16l1.41-.62.62.16-.16,1.09,1.3,1.52.78.78.31-1.25.47-.31,1.4,1.56.15,1.72,1.4,2.03,2.03.47.62.62.94-.62.78,1.56,1.09.78.78-.31,1.4.94,1.56.94.62.62-.47,2.81.94,2.03.94,1.25.39.85.55.72,1.72,1.25.42,1.45.78-.47.88.3-.39.96-1.12.21-.45.92.45.42.62.62-.16,1.09,1.4.94v-.62s.78.16.78.16l.43.35.62.31.78-.31.19-.5-.16-.94.47-1.09-.17-.67.64-.26h1.24s.21-.99.21-.99l-.9-.97-1.36-1.07.23-.51-.78-1.51-1.49-1.71.17-1.5.95.28.82,1.43,1.59-.3-.11-.79-.62-.88,1.02-.68,1.56.63.78-.62,1.72.63,1.56.16,1.72-.47,1.41-1.25,2.19.31.16-.62-1.72-1.25-.78-1.09-.78-1.72.31-1.56v-.62s1.25-1.4,1.25-1.4v-1.72s-.94-.62-.94-.62l.62-.62.62.31,1.25-.78.47-1.56-.16-1.56.62-.62.94-1.56-.31-1.09.94.16.94-1.25,1.09-.62,1.03-.09,1.8-.09-2.04.81-.63.94,1.09.31,1.25-.16.62.47.62-.16.78,1.09-1.09-.31-.78.94-1.09,1.09.78.31h2.03s-.47,2.34-.47,2.34l2.65.31.78-1.09,1.41-.62s.47-.62,1.25-.16c.78.47,1.56-.31,1.56-.31l-.31-1.56-.94-.16-1.09.62-.78-1.09-.78-.62-1.09-.47-.78.16-.78-.31,1.25-.62.62-.62.94.62,1.07-1.04,1.27-.83,1.32-.13,1.49-1.27,1.09-.62.98-.18.12-1.23.89-.44,1.57-.17,1.15-.81-.28-1.53.13-2Z"/>
      <path class="st0" d="M376.8,71.01l1.62-1.12.84.91h.52c.16-.14.73-1.19.73-1.19l-.97-1.53.25-.98-1.62,1.17-1.07,1.06-.66,1.64-1.4-.02-.83.41-.26,1.31.06.29.72-1s1.52-.18,1.52-.18l.56-.76Z"/>
    </g>
    <path class="st0" d="M379.91,75.8c-.07.03-.13,1.65-.13,1.65l.38.74s1.47.43,1.47.35-.28-1.64-.28-1.64l-1.44-1.11Z"/>
    <path class="st0" d="M381.3,75.72c.07.05,1.44,2.03,1.44,2.03h1.37l.69-.68-1.14-2.5-.89,1.12-1.47.02Z"/>
    <polyline class="st0" points="381.4 79.09 381.49 79.06 382.65 78.56 383.84 78.73 382.54 79.61"/>
    <polygon class="st0" points="385.89 79.29 387.1 80.2 387.81 79.61 386.99 78.98 385.89 79.29"/>
    <polygon class="st0" points="398.39 66.53 396.87 69.07 397.3 71.16 398.39 70.33 398.39 68.84 398.79 67.62 398.39 66.53"/>
    <polygon class="st0" points="395.25 69.44 394.53 70.66 394.29 72.35 395.25 70.89 395.25 69.44"/>
    <polygon class="st0" points="406.78 66.01 406.98 64.61 405.9 64.23 404.96 64.23 403.73 64.89 404.72 65.73 404.16 66.98 405.52 66.1 406.78 66.01"/>
  </g>
</svg>